<?xml version="1.0" standalone="no"?>
<!DOCTYPE svg PUBLIC "-//W3C//DTD SVG 20010904//EN"
 "http://www.w3.org/TR/2001/REC-SVG-20010904/DTD/svg10.dtd">
<svg version="1.0" xmlns="http://www.w3.org/2000/svg"
 width="1056.000000pt" height="1056.000000pt" viewBox="0 0 1056.000000 1056.000000"
 preserveAspectRatio="xMidYMid meet">
<metadata>
Created by potrace 1.11, written by Peter Selinger 2001-2013
</metadata>
<g transform="translate(0.000000,1056.000000) scale(0.100000,-0.100000)"
fill="#000000" stroke="none">
<path d="M4509 10525 c-23 -12 -118 -166 -257 -415 -13 -25 -29 -50 -33 -56
-12 -14 -3 -21 96 -76 100 -56 130 -73 400 -226 121 -69 245 -139 275 -155 30
-16 62 -36 71 -43 8 -8 18 -14 21 -14 3 0 41 -20 84 -45 44 -25 83 -45 87 -45
4 0 -3 19 -17 43 -35 61 -311 535 -461 793 -86 149 -137 227 -156 238 -33 20
-75 20 -110 1z"/>
<path d="M3038 10493 c-15 -9 -29 -26 -32 -37 -5 -19 -6 -375 -4 -2056 l1
-456 -60 -104 c-33 -58 -71 -123 -83 -145 -12 -22 -46 -80 -75 -130 -29 -49
-85 -146 -124 -215 -40 -69 -76 -132 -81 -140 -29 -49 -111 -190 -128 -220
-10 -19 -42 -73 -69 -120 -27 -47 -120 -206 -205 -355 -86 -148 -164 -284
-174 -302 -11 -17 -65 -112 -122 -210 -56 -98 -109 -189 -117 -203 -71 -122
-149 -257 -182 -315 -134 -234 -184 -322 -193 -335 -5 -8 -22 -37 -36 -65 -15
-27 -29 -52 -33 -55 -5 -4 -17 -26 -65 -115 -6 -11 -16 -27 -22 -35 -6 -8 -23
-36 -38 -62 -46 -84 -78 -141 -109 -192 -27 -46 -29 -57 -24 -111 23 -238 258
-592 548 -828 204 -166 486 -292 739 -332 19 -3 51 -8 70 -11 63 -10 314 -12
375 -3 33 5 80 11 105 14 25 4 52 8 60 10 8 2 29 7 46 10 55 9 207 55 304 92
162 61 327 148 585 306 55 34 105 63 155 90 30 17 78 44 105 59 73 43 384 193
505 245 167 72 313 127 484 182 87 28 162 54 167 57 4 2 3 17 -2 32 -51 130
-139 488 -155 627 -3 33 -8 62 -9 65 -2 4 -7 51 -12 105 -15 186 -8 550 12
657 3 12 7 40 11 63 18 125 82 359 134 490 154 387 438 735 768 941 194 121
332 184 557 254 161 50 501 108 642 110 17 0 42 33 118 158 54 86 110 177 126
201 35 53 38 111 9 158 -30 49 -63 63 -200 78 -25 3 -52 7 -60 10 -8 2 -33 6
-55 10 -22 3 -56 8 -75 11 -19 4 -44 8 -55 10 -96 17 -384 93 -509 135 -213
71 -497 201 -613 280 -23 16 -44 29 -47 29 -18 0 -250 176 -356 270 -65 58
-113 89 -292 189 -21 12 -53 29 -70 39 -284 162 -402 230 -448 257 -30 18 -86
49 -125 70 -38 20 -74 41 -80 45 -5 4 -32 20 -60 35 -27 15 -79 44 -115 65
-72 41 -276 157 -330 188 -19 10 -51 28 -70 39 -19 12 -199 114 -400 228 -201
114 -381 216 -400 227 -48 28 -80 31 -112 11z"/>
<path d="M844 4363 c-307 -304 -482 -643 -560 -1083 -26 -144 -25 -517 2 -680
11 -68 45 -235 54 -265 86 -278 135 -408 222 -580 171 -338 387 -632 679 -925
222 -223 530 -426 854 -562 179 -75 457 -161 595 -183 19 -3 42 -8 50 -10 8
-2 33 -7 55 -10 23 -3 50 -7 60 -9 23 -4 115 -15 230 -26 86 -8 575 -5 613 4
13 3 60 8 105 11 45 4 84 8 87 10 3 2 33 7 65 10 33 4 63 9 66 11 3 1 28 6 55
10 27 3 52 8 55 10 4 2 24 6 45 10 119 18 455 116 660 192 295 110 578 246
852 409 136 81 206 127 527 344 425 288 873 498 1306 613 73 19 150 38 169 41
19 3 42 8 50 10 18 5 61 12 115 19 22 3 50 8 63 10 102 21 504 29 658 12 l81
-8 31 63 c106 217 172 458 188 694 9 122 9 136 0 250 -6 79 -10 112 -30 225
-34 193 -137 452 -252 628 -87 133 -139 198 -254 312 -175 175 -338 285 -584
395 -84 37 -245 87 -326 101 -14 2 -34 6 -45 9 -11 2 -41 6 -67 9 -27 4 -69 9
-95 12 -53 6 -512 6 -638 0 -222 -12 -313 -17 -345 -21 -19 -2 -62 -7 -95 -10
-69 -6 -139 -15 -175 -20 -14 -3 -47 -7 -75 -10 -92 -11 -295 -53 -480 -99
-468 -117 -995 -354 -1570 -706 -38 -24 -104 -61 -145 -82 -41 -22 -79 -43
-85 -47 -16 -12 -191 -87 -285 -121 -87 -32 -286 -87 -350 -96 -19 -3 -41 -7
-48 -9 -58 -20 -415 -28 -542 -12 -232 29 -503 125 -705 249 -356 221 -646
589 -712 905 -9 43 -19 82 -23 86 -4 4 -52 -36 -106 -90z"/>
<path d="M8135 4273 c6 -6 49 -40 96 -75 384 -288 651 -708 748 -1178 32 -151
39 -244 36 -435 -2 -99 -5 -191 -8 -205 -3 -14 -8 -42 -11 -62 -23 -156 -88
-365 -165 -529 l-30 -64 47 -12 c26 -7 58 -14 72 -16 86 -14 361 -121 483
-188 38 -22 72 -39 75 -39 15 0 273 -183 357 -254 100 -84 237 -220 331 -330
52 -60 89 -75 117 -47 20 20 15 421 -8 626 -10 82 -16 131 -20 145 -2 8 -7 35
-10 60 -26 196 -141 584 -235 795 -10 22 -19 43 -20 47 -1 9 -92 185 -140 273
-60 112 -286 440 -320 465 -4 3 -30 32 -57 65 -218 263 -573 553 -926 756 -84
49 -298 158 -377 192 -14 6 -29 13 -35 15 -7 3 -7 1 0 -5z"/>
</g>
</svg>
