<?xml version="1.0" encoding="utf-8"?>
<!-- Generator: Adobe Illustrator 22.0.1, SVG Export Plug-In . SVG Version: 6.00 Build 0)  -->
<svg version="1.1" id="Capa_1" xmlns="http://www.w3.org/2000/svg" xmlns:xlink="http://www.w3.org/1999/xlink" x="0px" y="0px"
	 viewBox="0 0 241.2 253.7" style="enable-background:new 0 0 241.2 253.7;" xml:space="preserve">
<style type="text/css">
	.st0{clip-path:url(#SVGID_2_);fill:url(#SVGID_3_);}
	.st1{clip-path:url(#SVGID_5_);fill:url(#SVGID_6_);}
	.st2{clip-path:url(#SVGID_8_);fill:url(#SVGID_9_);}
	.st3{clip-path:url(#SVGID_11_);fill:url(#SVGID_12_);}
	.st4{opacity:0.21;}
	.st5{clip-path:url(#SVGID_15_);fill:url(#SVGID_16_);}
	.st6{clip-path:url(#SVGID_19_);fill:url(#SVGID_20_);}
	.st7{clip-path:url(#SVGID_23_);fill:url(#SVGID_24_);}
	.st8{clip-path:url(#SVGID_27_);fill:url(#SVGID_28_);}
	.st9{clip-path:url(#SVGID_31_);fill:url(#SVGID_32_);}
	.st10{clip-path:url(#SVGID_35_);fill:url(#SVGID_36_);}
	.st11{clip-path:url(#SVGID_39_);fill:url(#SVGID_40_);}
	.st12{clip-path:url(#SVGID_43_);fill:url(#SVGID_44_);}
	.st13{clip-path:url(#SVGID_46_);fill:url(#SVGID_47_);}
	.st14{clip-path:url(#SVGID_49_);fill:url(#SVGID_50_);}
	.st15{clip-path:url(#SVGID_52_);fill:url(#SVGID_53_);}
	.st16{clip-path:url(#SVGID_55_);fill:url(#SVGID_56_);}
</style>
<g>
	<defs>
		<path id="SVGID_1_" d="M-565.3,691.3c10.6,6.8,17.4,18.7,17.4,31.8c0,6-1.4,12-4.2,17.4c9.8,2,19,7.4,26.9,16.9
			c0.6,0.7,1.8,0.3,1.8-0.6C-522.5,720.1-545.1,699.7-565.3,691.3z"/>
	</defs>
	<clipPath id="SVGID_2_">
		<use xlink:href="#SVGID_1_"  style="overflow:visible;"/>
	</clipPath>
	<linearGradient id="SVGID_3_" gradientUnits="userSpaceOnUse" x1="-716.0721" y1="672.1625" x2="-523.3865" y2="672.1625">
		<stop  offset="0" style="stop-color:#4E1B50"/>
		<stop  offset="1" style="stop-color:#003B62"/>
	</linearGradient>
	<rect x="-716.1" y="571.2" class="st0" width="192.7" height="201.9"/>
</g>
<g>
	<defs>
		<path id="SVGID_4_" d="M-554.7,739.4c2.6-5,4.1-10.7,4.1-16.4c0-16.4-11.6-30.8-27.7-34.2c-2.6-0.5-5.1-0.7-7.4-0.7
			c-19.6,0-36.5,1.2-61.3,16.6c-19,11.8-33.4,7.1-40.4,3.3c-9.5-5.3-14.9-14-15.4-20.1c-21,17.9-16.2,49.7,7.5,71.7
			c22.8,19.4,58.9,18.3,91.4-4.8c15.5-11,33-17,49-14.7C-554.9,739.7-554.8,739.6-554.7,739.4z"/>
	</defs>
	<clipPath id="SVGID_5_">
		<use xlink:href="#SVGID_4_"  style="overflow:visible;"/>
	</clipPath>
	<linearGradient id="SVGID_6_" gradientUnits="userSpaceOnUse" x1="-716.0721" y1="672.1625" x2="-523.3865" y2="672.1625">
		<stop  offset="0" style="stop-color:#4E1B50"/>
		<stop  offset="1" style="stop-color:#003B62"/>
	</linearGradient>
	<rect x="-716.1" y="571.2" class="st1" width="192.7" height="201.9"/>
</g>
<g>
	<defs>
		<path id="SVGID_7_" d="M-578.8,613.6c-14.5-1.8-27.4-6.3-37.1-15.8l-45.3-25.8c-1-0.6-2.3,0.2-2.3,1.4l0.1,47.7l-37.4,64.7
			c0.2,0.1,0-0.1,0,0c0.1,5.4,6.2,15,15,19.9c7.8,4.2,20.6,7.1,37.4-3.4c0.6-0.4,1.3-0.8,1.9-1.2c0.4-0.2,0.7-0.4,1-0.6
			c0.3-0.2,0.6-0.3,0.9-0.5c0.5-0.3,1-0.6,1.4-0.8c0.2-0.1,0.3-0.2,0.4-0.2c0.6-0.3,1.1-0.6,1.6-0.9c0.1-0.1,0.2-0.1,0.2-0.2
			c0.6-0.3,1.1-0.6,1.7-0.9c0.1,0,0.1-0.1,0.2-0.1c0.6-0.3,1.1-0.6,1.8-0.9c0.1,0,0.1-0.1,0.2-0.1c0.6-0.3,1.2-0.6,1.8-0.9l0,0
			c5.5-2.6,11-4.6,16.2-6.2l0,0c-11-31.4,2.1-62.5,37.6-64.2l4.3-7C-575.8,616-576.9,613.8-578.8,613.6z"/>
	</defs>
	<clipPath id="SVGID_8_">
		<use xlink:href="#SVGID_7_"  style="overflow:visible;"/>
	</clipPath>
	<linearGradient id="SVGID_9_" gradientUnits="userSpaceOnUse" x1="-716.0721" y1="672.1625" x2="-523.3865" y2="672.1625">
		<stop  offset="0" style="stop-color:#4E1B50"/>
		<stop  offset="1" style="stop-color:#003B62"/>
	</linearGradient>
	<rect x="-716.1" y="571.2" class="st2" width="192.7" height="201.9"/>
</g>
<g>
	<defs>
		<path id="SVGID_10_" d="M-620.1,592.2l-11.6-20c-0.8-1.4-2.8-1.4-3.6,0l-5,8.6L-620.1,592.2z"/>
	</defs>
	<clipPath id="SVGID_11_">
		<use xlink:href="#SVGID_10_"  style="overflow:visible;"/>
	</clipPath>
	<linearGradient id="SVGID_12_" gradientUnits="userSpaceOnUse" x1="-716.0721" y1="672.1625" x2="-523.3865" y2="672.1625">
		<stop  offset="0" style="stop-color:#4E1B50"/>
		<stop  offset="1" style="stop-color:#003B62"/>
	</linearGradient>
	<rect x="-716.1" y="571.2" class="st3" width="192.7" height="201.9"/>
</g>
<g class="st4">
	<defs>
		<path id="SVGID_13_" class="st4" d="M-565.3,691.3c10.6,6.8,17.4,18.7,17.4,31.8c0,6-1.4,12-4.2,17.4c9.8,2,19,7.4,26.9,16.9
			c0.6,0.7,1.8,0.3,1.8-0.6C-522.5,720.1-545.1,699.7-565.3,691.3z"/>
	</defs>
	<linearGradient id="SVGID_14_" gradientUnits="userSpaceOnUse" x1="-555.9654" y1="727.8643" x2="-530.4146" y2="720.0527">
		<stop  offset="0" style="stop-color:#140D10"/>
		<stop  offset="5.064043e-02" style="stop-color:#312928"/>
		<stop  offset="0.1469" style="stop-color:#5C5252"/>
		<stop  offset="0.236" style="stop-color:#887C7C"/>
		<stop  offset="0.3149" style="stop-color:#AFA2A2"/>
		<stop  offset="0.3808" style="stop-color:#C9BEBE"/>
		<stop  offset="0.4256" style="stop-color:#D1C7C7"/>
		<stop  offset="0.4929" style="stop-color:#CABFBF"/>
		<stop  offset="0.5813" style="stop-color:#B3A6A7"/>
		<stop  offset="0.6816" style="stop-color:#8F8385"/>
		<stop  offset="0.7905" style="stop-color:#645B5F"/>
		<stop  offset="0.9051" style="stop-color:#3C3638"/>
		<stop  offset="1" style="stop-color:#140F18"/>
	</linearGradient>
	<use xlink:href="#SVGID_13_"  style="overflow:visible;fill:url(#SVGID_14_);"/>
	<clipPath id="SVGID_15_">
		<use xlink:href="#SVGID_13_"  style="overflow:visible;"/>
	</clipPath>
	<linearGradient id="SVGID_16_" gradientUnits="userSpaceOnUse" x1="-736.0625" y1="707.7292" x2="-503.3961" y2="636.5959">
		<stop  offset="0" style="stop-color:#140D10"/>
		<stop  offset="5.064043e-02" style="stop-color:#312928"/>
		<stop  offset="0.1469" style="stop-color:#5C5252"/>
		<stop  offset="0.236" style="stop-color:#887C7C"/>
		<stop  offset="0.3149" style="stop-color:#AFA2A2"/>
		<stop  offset="0.3808" style="stop-color:#C9BEBE"/>
		<stop  offset="0.4256" style="stop-color:#D1C7C7"/>
		<stop  offset="0.4929" style="stop-color:#CABFBF"/>
		<stop  offset="0.5813" style="stop-color:#B3A6A7"/>
		<stop  offset="0.6816" style="stop-color:#8F8385"/>
		<stop  offset="0.7905" style="stop-color:#645B5F"/>
		<stop  offset="0.9051" style="stop-color:#3C3638"/>
		<stop  offset="1" style="stop-color:#140F18"/>
	</linearGradient>
	<rect x="-716.1" y="571.2" class="st5" width="192.7" height="201.9"/>
</g>
<g class="st4">
	<defs>
		<path id="SVGID_17_" class="st4" d="M-554.7,739.4c2.6-5,4.1-10.7,4.1-16.4c0-16.4-11.6-30.8-27.7-34.2c-2.6-0.5-5.1-0.7-7.4-0.7
			c-19.6,0-36.5,1.2-61.3,16.6c-19,11.8-33.4,7.1-40.4,3.3c-9.5-5.3-14.9-14-15.4-20.1c-21,17.9-16.2,49.7,7.5,71.7
			c22.8,19.4,58.9,18.3,91.4-4.8c15.5-11,33-17,49-14.7C-554.9,739.7-554.8,739.6-554.7,739.4z"/>
	</defs>
	<linearGradient id="SVGID_18_" gradientUnits="userSpaceOnUse" x1="-710.5886" y1="741.6723" x2="-557.6295" y2="694.908">
		<stop  offset="0" style="stop-color:#140D10"/>
		<stop  offset="5.064043e-02" style="stop-color:#312928"/>
		<stop  offset="0.1469" style="stop-color:#5C5252"/>
		<stop  offset="0.236" style="stop-color:#887C7C"/>
		<stop  offset="0.3149" style="stop-color:#AFA2A2"/>
		<stop  offset="0.3808" style="stop-color:#C9BEBE"/>
		<stop  offset="0.4256" style="stop-color:#D1C7C7"/>
		<stop  offset="0.4929" style="stop-color:#CABFBF"/>
		<stop  offset="0.5813" style="stop-color:#B3A6A7"/>
		<stop  offset="0.6816" style="stop-color:#8F8385"/>
		<stop  offset="0.7905" style="stop-color:#645B5F"/>
		<stop  offset="0.9051" style="stop-color:#3C3638"/>
		<stop  offset="1" style="stop-color:#140F18"/>
	</linearGradient>
	<use xlink:href="#SVGID_17_"  style="overflow:visible;fill:url(#SVGID_18_);"/>
	<clipPath id="SVGID_19_">
		<use xlink:href="#SVGID_17_"  style="overflow:visible;"/>
	</clipPath>
	<linearGradient id="SVGID_20_" gradientUnits="userSpaceOnUse" x1="-736.0625" y1="707.7292" x2="-503.3961" y2="636.5959">
		<stop  offset="0" style="stop-color:#140D10"/>
		<stop  offset="5.064043e-02" style="stop-color:#312928"/>
		<stop  offset="0.1469" style="stop-color:#5C5252"/>
		<stop  offset="0.236" style="stop-color:#887C7C"/>
		<stop  offset="0.3149" style="stop-color:#AFA2A2"/>
		<stop  offset="0.3808" style="stop-color:#C9BEBE"/>
		<stop  offset="0.4256" style="stop-color:#D1C7C7"/>
		<stop  offset="0.4929" style="stop-color:#CABFBF"/>
		<stop  offset="0.5813" style="stop-color:#B3A6A7"/>
		<stop  offset="0.6816" style="stop-color:#8F8385"/>
		<stop  offset="0.7905" style="stop-color:#645B5F"/>
		<stop  offset="0.9051" style="stop-color:#3C3638"/>
		<stop  offset="1" style="stop-color:#140F18"/>
	</linearGradient>
	<rect x="-716.1" y="571.2" class="st6" width="192.7" height="201.9"/>
</g>
<g class="st4">
	<defs>
		<path id="SVGID_21_" class="st4" d="M-578.8,613.6c-14.5-1.8-27.4-6.3-37.1-15.8l-45.3-25.8c-1-0.6-2.3,0.2-2.3,1.4l0.1,47.7
			l-37.4,64.7c0.2,0.1,0-0.1,0,0c0.1,5.4,6.2,15,15,19.9c7.8,4.2,20.6,7.1,37.4-3.4c0.6-0.4,1.3-0.8,1.9-1.2c0.4-0.2,0.7-0.4,1-0.6
			c0.3-0.2,0.6-0.3,0.9-0.5c0.5-0.3,1-0.6,1.4-0.8c0.2-0.1,0.3-0.2,0.4-0.2c0.6-0.3,1.1-0.6,1.6-0.9c0.1-0.1,0.2-0.1,0.2-0.2
			c0.6-0.3,1.1-0.6,1.7-0.9c0.1,0,0.1-0.1,0.2-0.1c0.6-0.3,1.1-0.6,1.8-0.9c0.1,0,0.1-0.1,0.2-0.1c0.6-0.3,1.2-0.6,1.8-0.9l0,0
			c5.5-2.6,11-4.6,16.2-6.2l0,0c-11-31.4,2.1-62.5,37.6-64.2l4.3-7C-575.8,616-576.9,613.8-578.8,613.6z"/>
	</defs>
	<linearGradient id="SVGID_22_" gradientUnits="userSpaceOnUse" x1="-710.5979" y1="654.9306" x2="-577.0277" y2="614.0941">
		<stop  offset="0" style="stop-color:#140D10"/>
		<stop  offset="5.064043e-02" style="stop-color:#312928"/>
		<stop  offset="0.1469" style="stop-color:#5C5252"/>
		<stop  offset="0.236" style="stop-color:#887C7C"/>
		<stop  offset="0.3149" style="stop-color:#AFA2A2"/>
		<stop  offset="0.3808" style="stop-color:#C9BEBE"/>
		<stop  offset="0.4256" style="stop-color:#D1C7C7"/>
		<stop  offset="0.4929" style="stop-color:#CABFBF"/>
		<stop  offset="0.5813" style="stop-color:#B3A6A7"/>
		<stop  offset="0.6816" style="stop-color:#8F8385"/>
		<stop  offset="0.7905" style="stop-color:#645B5F"/>
		<stop  offset="0.9051" style="stop-color:#3C3638"/>
		<stop  offset="1" style="stop-color:#140F18"/>
	</linearGradient>
	<use xlink:href="#SVGID_21_"  style="overflow:visible;fill:url(#SVGID_22_);"/>
	<clipPath id="SVGID_23_">
		<use xlink:href="#SVGID_21_"  style="overflow:visible;"/>
	</clipPath>
	<linearGradient id="SVGID_24_" gradientUnits="userSpaceOnUse" x1="-736.0625" y1="707.7292" x2="-503.3961" y2="636.5959">
		<stop  offset="0" style="stop-color:#140D10"/>
		<stop  offset="5.064043e-02" style="stop-color:#312928"/>
		<stop  offset="0.1469" style="stop-color:#5C5252"/>
		<stop  offset="0.236" style="stop-color:#887C7C"/>
		<stop  offset="0.3149" style="stop-color:#AFA2A2"/>
		<stop  offset="0.3808" style="stop-color:#C9BEBE"/>
		<stop  offset="0.4256" style="stop-color:#D1C7C7"/>
		<stop  offset="0.4929" style="stop-color:#CABFBF"/>
		<stop  offset="0.5813" style="stop-color:#B3A6A7"/>
		<stop  offset="0.6816" style="stop-color:#8F8385"/>
		<stop  offset="0.7905" style="stop-color:#645B5F"/>
		<stop  offset="0.9051" style="stop-color:#3C3638"/>
		<stop  offset="1" style="stop-color:#140F18"/>
	</linearGradient>
	<rect x="-716.1" y="571.2" class="st7" width="192.7" height="201.9"/>
</g>
<g class="st4">
	<defs>
		<path id="SVGID_25_" class="st4" d="M-620.1,592.2l-11.6-20c-0.8-1.4-2.8-1.4-3.6,0l-5,8.6L-620.1,592.2z"/>
	</defs>
	<linearGradient id="SVGID_26_" gradientUnits="userSpaceOnUse" x1="-638.8189" y1="585.359" x2="-623.5808" y2="580.7003">
		<stop  offset="0" style="stop-color:#140D10"/>
		<stop  offset="5.064043e-02" style="stop-color:#312928"/>
		<stop  offset="0.1469" style="stop-color:#5C5252"/>
		<stop  offset="0.236" style="stop-color:#887C7C"/>
		<stop  offset="0.3149" style="stop-color:#AFA2A2"/>
		<stop  offset="0.3808" style="stop-color:#C9BEBE"/>
		<stop  offset="0.4256" style="stop-color:#D1C7C7"/>
		<stop  offset="0.4929" style="stop-color:#CABFBF"/>
		<stop  offset="0.5813" style="stop-color:#B3A6A7"/>
		<stop  offset="0.6816" style="stop-color:#8F8385"/>
		<stop  offset="0.7905" style="stop-color:#645B5F"/>
		<stop  offset="0.9051" style="stop-color:#3C3638"/>
		<stop  offset="1" style="stop-color:#140F18"/>
	</linearGradient>
	<use xlink:href="#SVGID_25_"  style="overflow:visible;fill:url(#SVGID_26_);"/>
	<clipPath id="SVGID_27_">
		<use xlink:href="#SVGID_25_"  style="overflow:visible;"/>
	</clipPath>
	<linearGradient id="SVGID_28_" gradientUnits="userSpaceOnUse" x1="-736.0625" y1="707.7292" x2="-503.3961" y2="636.5959">
		<stop  offset="0" style="stop-color:#140D10"/>
		<stop  offset="5.064043e-02" style="stop-color:#312928"/>
		<stop  offset="0.1469" style="stop-color:#5C5252"/>
		<stop  offset="0.236" style="stop-color:#887C7C"/>
		<stop  offset="0.3149" style="stop-color:#AFA2A2"/>
		<stop  offset="0.3808" style="stop-color:#C9BEBE"/>
		<stop  offset="0.4256" style="stop-color:#D1C7C7"/>
		<stop  offset="0.4929" style="stop-color:#CABFBF"/>
		<stop  offset="0.5813" style="stop-color:#B3A6A7"/>
		<stop  offset="0.6816" style="stop-color:#8F8385"/>
		<stop  offset="0.7905" style="stop-color:#645B5F"/>
		<stop  offset="0.9051" style="stop-color:#3C3638"/>
		<stop  offset="1" style="stop-color:#140F18"/>
	</linearGradient>
	<rect x="-716.1" y="571.2" class="st8" width="192.7" height="201.9"/>
</g>
<g class="st4">
	<defs>
		<path id="SVGID_29_" class="st4" d="M-565.3,691.3c10.6,6.8,17.4,18.7,17.4,31.8c0,6-1.4,12-4.2,17.4c9.8,2,19,7.4,26.9,16.9
			c0.6,0.7,1.8,0.3,1.8-0.6C-522.5,720.1-545.1,699.7-565.3,691.3z"/>
	</defs>
	<linearGradient id="SVGID_30_" gradientUnits="userSpaceOnUse" x1="-555.9654" y1="727.8643" x2="-530.4146" y2="720.0527">
		<stop  offset="0" style="stop-color:#140D10"/>
		<stop  offset="5.064043e-02" style="stop-color:#312928"/>
		<stop  offset="0.1469" style="stop-color:#5C5252"/>
		<stop  offset="0.236" style="stop-color:#887C7C"/>
		<stop  offset="0.3149" style="stop-color:#AFA2A2"/>
		<stop  offset="0.3808" style="stop-color:#C9BEBE"/>
		<stop  offset="0.4256" style="stop-color:#D1C7C7"/>
		<stop  offset="0.4929" style="stop-color:#CABFBF"/>
		<stop  offset="0.5813" style="stop-color:#B3A6A7"/>
		<stop  offset="0.6816" style="stop-color:#8F8385"/>
		<stop  offset="0.7905" style="stop-color:#645B5F"/>
		<stop  offset="0.9051" style="stop-color:#3C3638"/>
		<stop  offset="1" style="stop-color:#140F18"/>
	</linearGradient>
	<use xlink:href="#SVGID_29_"  style="overflow:visible;fill:url(#SVGID_30_);"/>
	<clipPath id="SVGID_31_">
		<use xlink:href="#SVGID_29_"  style="overflow:visible;"/>
	</clipPath>
	<linearGradient id="SVGID_32_" gradientUnits="userSpaceOnUse" x1="-736.0625" y1="707.7292" x2="-503.3961" y2="636.5959">
		<stop  offset="0" style="stop-color:#140D10"/>
		<stop  offset="5.064043e-02" style="stop-color:#312928"/>
		<stop  offset="0.1469" style="stop-color:#5C5252"/>
		<stop  offset="0.236" style="stop-color:#887C7C"/>
		<stop  offset="0.3149" style="stop-color:#AFA2A2"/>
		<stop  offset="0.3808" style="stop-color:#C9BEBE"/>
		<stop  offset="0.4256" style="stop-color:#D1C7C7"/>
		<stop  offset="0.4929" style="stop-color:#CABFBF"/>
		<stop  offset="0.5813" style="stop-color:#B3A6A7"/>
		<stop  offset="0.6816" style="stop-color:#8F8385"/>
		<stop  offset="0.7905" style="stop-color:#645B5F"/>
		<stop  offset="0.9051" style="stop-color:#3C3638"/>
		<stop  offset="1" style="stop-color:#140F18"/>
	</linearGradient>
	<rect x="-716.1" y="571.2" class="st9" width="192.7" height="201.9"/>
</g>
<g class="st4">
	<defs>
		<path id="SVGID_33_" class="st4" d="M-554.7,739.4c2.6-5,4.1-10.7,4.1-16.4c0-16.4-11.6-30.8-27.7-34.2c-2.6-0.5-5.1-0.7-7.4-0.7
			c-19.6,0-36.5,1.2-61.3,16.6c-19,11.8-33.4,7.1-40.4,3.3c-9.5-5.3-14.9-14-15.4-20.1c-21,17.9-16.2,49.7,7.5,71.7
			c22.8,19.4,58.9,18.3,91.4-4.8c15.5-11,33-17,49-14.7C-554.9,739.7-554.8,739.6-554.7,739.4z"/>
	</defs>
	<linearGradient id="SVGID_34_" gradientUnits="userSpaceOnUse" x1="-710.5886" y1="741.6723" x2="-557.6295" y2="694.908">
		<stop  offset="0" style="stop-color:#140D10"/>
		<stop  offset="5.064043e-02" style="stop-color:#312928"/>
		<stop  offset="0.1469" style="stop-color:#5C5252"/>
		<stop  offset="0.236" style="stop-color:#887C7C"/>
		<stop  offset="0.3149" style="stop-color:#AFA2A2"/>
		<stop  offset="0.3808" style="stop-color:#C9BEBE"/>
		<stop  offset="0.4256" style="stop-color:#D1C7C7"/>
		<stop  offset="0.4929" style="stop-color:#CABFBF"/>
		<stop  offset="0.5813" style="stop-color:#B3A6A7"/>
		<stop  offset="0.6816" style="stop-color:#8F8385"/>
		<stop  offset="0.7905" style="stop-color:#645B5F"/>
		<stop  offset="0.9051" style="stop-color:#3C3638"/>
		<stop  offset="1" style="stop-color:#140F18"/>
	</linearGradient>
	<use xlink:href="#SVGID_33_"  style="overflow:visible;fill:url(#SVGID_34_);"/>
	<clipPath id="SVGID_35_">
		<use xlink:href="#SVGID_33_"  style="overflow:visible;"/>
	</clipPath>
	<linearGradient id="SVGID_36_" gradientUnits="userSpaceOnUse" x1="-736.0625" y1="707.7292" x2="-503.3961" y2="636.5959">
		<stop  offset="0" style="stop-color:#140D10"/>
		<stop  offset="5.064043e-02" style="stop-color:#312928"/>
		<stop  offset="0.1469" style="stop-color:#5C5252"/>
		<stop  offset="0.236" style="stop-color:#887C7C"/>
		<stop  offset="0.3149" style="stop-color:#AFA2A2"/>
		<stop  offset="0.3808" style="stop-color:#C9BEBE"/>
		<stop  offset="0.4256" style="stop-color:#D1C7C7"/>
		<stop  offset="0.4929" style="stop-color:#CABFBF"/>
		<stop  offset="0.5813" style="stop-color:#B3A6A7"/>
		<stop  offset="0.6816" style="stop-color:#8F8385"/>
		<stop  offset="0.7905" style="stop-color:#645B5F"/>
		<stop  offset="0.9051" style="stop-color:#3C3638"/>
		<stop  offset="1" style="stop-color:#140F18"/>
	</linearGradient>
	<rect x="-716.1" y="571.2" class="st10" width="192.7" height="201.9"/>
</g>
<g class="st4">
	<defs>
		<path id="SVGID_37_" class="st4" d="M-578.8,613.6c-14.5-1.8-27.4-6.3-37.1-15.8l-45.3-25.8c-1-0.6-2.3,0.2-2.3,1.4l0.1,47.7
			l-37.4,64.7c0.2,0.1,0-0.1,0,0c0.1,5.4,6.2,15,15,19.9c7.8,4.2,20.6,7.1,37.4-3.4c0.6-0.4,1.3-0.8,1.9-1.2c0.4-0.2,0.7-0.4,1-0.6
			c0.3-0.2,0.6-0.3,0.9-0.5c0.5-0.3,1-0.6,1.4-0.8c0.2-0.1,0.3-0.2,0.4-0.2c0.6-0.3,1.1-0.6,1.6-0.9c0.1-0.1,0.2-0.1,0.2-0.2
			c0.6-0.3,1.1-0.6,1.7-0.9c0.1,0,0.1-0.1,0.2-0.1c0.6-0.3,1.1-0.6,1.8-0.9c0.1,0,0.1-0.1,0.2-0.1c0.6-0.3,1.2-0.6,1.8-0.9l0,0
			c5.5-2.6,11-4.6,16.2-6.2l0,0c-11-31.4,2.1-62.5,37.6-64.2l4.3-7C-575.8,616-576.9,613.8-578.8,613.6z"/>
	</defs>
	<linearGradient id="SVGID_38_" gradientUnits="userSpaceOnUse" x1="-710.5979" y1="654.9306" x2="-577.0277" y2="614.0941">
		<stop  offset="0" style="stop-color:#140D10"/>
		<stop  offset="5.064043e-02" style="stop-color:#312928"/>
		<stop  offset="0.1469" style="stop-color:#5C5252"/>
		<stop  offset="0.236" style="stop-color:#887C7C"/>
		<stop  offset="0.3149" style="stop-color:#AFA2A2"/>
		<stop  offset="0.3808" style="stop-color:#C9BEBE"/>
		<stop  offset="0.4256" style="stop-color:#D1C7C7"/>
		<stop  offset="0.4929" style="stop-color:#CABFBF"/>
		<stop  offset="0.5813" style="stop-color:#B3A6A7"/>
		<stop  offset="0.6816" style="stop-color:#8F8385"/>
		<stop  offset="0.7905" style="stop-color:#645B5F"/>
		<stop  offset="0.9051" style="stop-color:#3C3638"/>
		<stop  offset="1" style="stop-color:#140F18"/>
	</linearGradient>
	<use xlink:href="#SVGID_37_"  style="overflow:visible;fill:url(#SVGID_38_);"/>
	<clipPath id="SVGID_39_">
		<use xlink:href="#SVGID_37_"  style="overflow:visible;"/>
	</clipPath>
	<linearGradient id="SVGID_40_" gradientUnits="userSpaceOnUse" x1="-736.0625" y1="707.7292" x2="-503.3961" y2="636.5959">
		<stop  offset="0" style="stop-color:#140D10"/>
		<stop  offset="5.064043e-02" style="stop-color:#312928"/>
		<stop  offset="0.1469" style="stop-color:#5C5252"/>
		<stop  offset="0.236" style="stop-color:#887C7C"/>
		<stop  offset="0.3149" style="stop-color:#AFA2A2"/>
		<stop  offset="0.3808" style="stop-color:#C9BEBE"/>
		<stop  offset="0.4256" style="stop-color:#D1C7C7"/>
		<stop  offset="0.4929" style="stop-color:#CABFBF"/>
		<stop  offset="0.5813" style="stop-color:#B3A6A7"/>
		<stop  offset="0.6816" style="stop-color:#8F8385"/>
		<stop  offset="0.7905" style="stop-color:#645B5F"/>
		<stop  offset="0.9051" style="stop-color:#3C3638"/>
		<stop  offset="1" style="stop-color:#140F18"/>
	</linearGradient>
	<rect x="-716.1" y="571.2" class="st11" width="192.7" height="201.9"/>
</g>
<g class="st4">
	<defs>
		<path id="SVGID_41_" class="st4" d="M-620.1,592.2l-11.6-20c-0.8-1.4-2.8-1.4-3.6,0l-5,8.6L-620.1,592.2z"/>
	</defs>
	<linearGradient id="SVGID_42_" gradientUnits="userSpaceOnUse" x1="-638.8189" y1="585.359" x2="-623.5808" y2="580.7003">
		<stop  offset="0" style="stop-color:#140D10"/>
		<stop  offset="5.064043e-02" style="stop-color:#312928"/>
		<stop  offset="0.1469" style="stop-color:#5C5252"/>
		<stop  offset="0.236" style="stop-color:#887C7C"/>
		<stop  offset="0.3149" style="stop-color:#AFA2A2"/>
		<stop  offset="0.3808" style="stop-color:#C9BEBE"/>
		<stop  offset="0.4256" style="stop-color:#D1C7C7"/>
		<stop  offset="0.4929" style="stop-color:#CABFBF"/>
		<stop  offset="0.5813" style="stop-color:#B3A6A7"/>
		<stop  offset="0.6816" style="stop-color:#8F8385"/>
		<stop  offset="0.7905" style="stop-color:#645B5F"/>
		<stop  offset="0.9051" style="stop-color:#3C3638"/>
		<stop  offset="1" style="stop-color:#140F18"/>
	</linearGradient>
	<use xlink:href="#SVGID_41_"  style="overflow:visible;fill:url(#SVGID_42_);"/>
	<clipPath id="SVGID_43_">
		<use xlink:href="#SVGID_41_"  style="overflow:visible;"/>
	</clipPath>
	<linearGradient id="SVGID_44_" gradientUnits="userSpaceOnUse" x1="-736.0625" y1="707.7292" x2="-503.3961" y2="636.5959">
		<stop  offset="0" style="stop-color:#140D10"/>
		<stop  offset="5.064043e-02" style="stop-color:#312928"/>
		<stop  offset="0.1469" style="stop-color:#5C5252"/>
		<stop  offset="0.236" style="stop-color:#887C7C"/>
		<stop  offset="0.3149" style="stop-color:#AFA2A2"/>
		<stop  offset="0.3808" style="stop-color:#C9BEBE"/>
		<stop  offset="0.4256" style="stop-color:#D1C7C7"/>
		<stop  offset="0.4929" style="stop-color:#CABFBF"/>
		<stop  offset="0.5813" style="stop-color:#B3A6A7"/>
		<stop  offset="0.6816" style="stop-color:#8F8385"/>
		<stop  offset="0.7905" style="stop-color:#645B5F"/>
		<stop  offset="0.9051" style="stop-color:#3C3638"/>
		<stop  offset="1" style="stop-color:#140F18"/>
	</linearGradient>
	<rect x="-716.1" y="571.2" class="st12" width="192.7" height="201.9"/>
</g>
<g>
	<g>
		<defs>
			<path id="SVGID_45_" d="M188.4,150.1c13.2,8.5,21.8,23.4,21.8,39.7c0,7.5-1.8,15-5.3,21.7c12.3,2.5,23.8,9.2,33.6,21.1
				c0.8,0.9,2.3,0.4,2.3-0.8C242,186.1,213.7,160.6,188.4,150.1z"/>
		</defs>
		<clipPath id="SVGID_46_">
			<use xlink:href="#SVGID_45_"  style="overflow:visible;"/>
		</clipPath>
		<linearGradient id="SVGID_47_" gradientUnits="userSpaceOnUse" x1="9.094947e-13" y1="126.1908" x2="240.8575" y2="126.1908">
			<stop  offset="0" style="stop-color:#461A5D"/>
			<stop  offset="1" style="stop-color:#00487A"/>
		</linearGradient>
		<rect x="0" class="st13" width="240.9" height="252.4"/>
	</g>
	<g>
		<defs>
			<path id="SVGID_48_" d="M201.7,210.3c3.3-6.3,5.1-13.4,5.1-20.5c0-20.5-14.5-38.5-34.6-42.8c-3.3-0.6-6.4-0.9-9.2-0.9
				c-24.5,0-45.6,1.5-76.6,20.7c-23.8,14.7-41.8,8.9-50.5,4.1c-11.9-6.6-18.6-17.5-19.3-25.1c-26.2,22.4-20.2,62.1,9.4,89.6
				c28.5,24.2,73.6,22.9,114.2-6c19.4-13.7,41.2-21.3,61.2-18.4C201.5,210.7,201.6,210.5,201.7,210.3z"/>
		</defs>
		<clipPath id="SVGID_49_">
			<use xlink:href="#SVGID_48_"  style="overflow:visible;"/>
		</clipPath>
		<linearGradient id="SVGID_50_" gradientUnits="userSpaceOnUse" x1="9.094947e-13" y1="126.1908" x2="240.8575" y2="126.1908">
			<stop  offset="0" style="stop-color:#461A5D"/>
			<stop  offset="1" style="stop-color:#00487A"/>
		</linearGradient>
		<rect x="0" class="st14" width="240.9" height="252.4"/>
	</g>
	<g>
		<defs>
			<path id="SVGID_51_" d="M171.6,53c-18.1-2.3-34.2-7.9-46.4-19.8L68.6,1c-1.3-0.7-2.9,0.2-2.9,1.7l0.1,59.6l-46.7,80.9
				c0.2,0.1,0-0.1,0,0c0.1,6.8,7.7,18.8,18.8,24.9c9.7,5.3,25.7,8.9,46.7-4.2c0.8-0.5,1.6-1,2.4-1.5c0.5-0.3,0.9-0.5,1.3-0.8
				c0.4-0.2,0.7-0.4,1.1-0.6c0.6-0.4,1.2-0.7,1.8-1c0.2-0.1,0.4-0.2,0.5-0.3c0.7-0.4,1.4-0.8,2-1.1c0.1-0.1,0.2-0.1,0.3-0.2
				c0.7-0.4,1.4-0.8,2.1-1.1c0.1,0,0.1-0.1,0.2-0.1c0.7-0.4,1.4-0.7,2.2-1.1c0.1,0,0.1-0.1,0.2-0.1c0.8-0.4,1.5-0.7,2.3-1.1l0,0
				c6.9-3.3,13.7-5.8,20.3-7.7l0,0c-13.8-39.3,2.6-78.1,47-80.3l5.4-8.7C175.3,56,174,53.3,171.6,53z"/>
		</defs>
		<clipPath id="SVGID_52_">
			<use xlink:href="#SVGID_51_"  style="overflow:visible;"/>
		</clipPath>
		<linearGradient id="SVGID_53_" gradientUnits="userSpaceOnUse" x1="9.094947e-13" y1="126.1908" x2="240.8575" y2="126.1908">
			<stop  offset="0" style="stop-color:#461A5D"/>
			<stop  offset="1" style="stop-color:#00487A"/>
		</linearGradient>
		<rect x="0" class="st15" width="240.9" height="252.4"/>
	</g>
	<g>
		<defs>
			<path id="SVGID_54_" d="M120,26.3l-14.5-25c-1-1.7-3.5-1.7-4.5,0L94.8,12L120,26.3z"/>
		</defs>
		<clipPath id="SVGID_55_">
			<use xlink:href="#SVGID_54_"  style="overflow:visible;"/>
		</clipPath>
		<linearGradient id="SVGID_56_" gradientUnits="userSpaceOnUse" x1="9.094947e-13" y1="126.1908" x2="240.8575" y2="126.1908">
			<stop  offset="0" style="stop-color:#461A5D"/>
			<stop  offset="1" style="stop-color:#00487A"/>
		</linearGradient>
		<rect x="0" class="st16" width="240.9" height="252.4"/>
	</g>
</g>
</svg>
