<?xml version="1.0" encoding="utf-8"?>
<!-- Generator: Adobe Illustrator 22.0.1, SVG Export Plug-In . SVG Version: 6.00 Build 0)  -->
<svg version="1.1" id="Capa_1" xmlns="http://www.w3.org/2000/svg" xmlns:xlink="http://www.w3.org/1999/xlink" x="0px" y="0px"
	 viewBox="0 0 241.2 253.7" style="enable-background:new 0 0 241.2 253.7;" xml:space="preserve">
<style type="text/css">
	.st0{clip-path:url(#SVGID_2_);fill:url(#SVGID_3_);}
	.st1{clip-path:url(#SVGID_5_);fill:url(#SVGID_6_);}
	.st2{clip-path:url(#SVGID_8_);fill:url(#SVGID_9_);}
	.st3{clip-path:url(#SVGID_11_);fill:url(#SVGID_12_);}
	.st4{opacity:0.21;}
	.st5{opacity:0.21;fill:url(#SVGID_14_);enable-background:new    ;}
	.st6{clip-path:url(#SVGID_16_);fill:url(#SVGID_18_);}
	.st7{opacity:0.21;fill:url(#SVGID_19_);enable-background:new    ;}
	.st8{clip-path:url(#SVGID_22_);fill:url(#SVGID_23_);}
	.st9{opacity:0.21;fill:url(#SVGID_24_);enable-background:new    ;}
	.st10{clip-path:url(#SVGID_27_);fill:url(#SVGID_28_);}
	.st11{opacity:0.21;fill:url(#SVGID_30_);enable-background:new    ;}
	.st12{clip-path:url(#SVGID_32_);fill:url(#SVGID_34_);}
	.st13{opacity:0.21;fill:url(#SVGID_35_);enable-background:new    ;}
	.st14{clip-path:url(#SVGID_38_);fill:url(#SVGID_39_);}
	.st15{opacity:0.21;fill:url(#SVGID_40_);enable-background:new    ;}
	.st16{clip-path:url(#SVGID_43_);fill:url(#SVGID_44_);}
	.st17{opacity:0.21;fill:url(#SVGID_45_);enable-background:new    ;}
	.st18{clip-path:url(#SVGID_47_);fill:url(#SVGID_48_);}
	.st19{opacity:0.21;fill:url(#SVGID_49_);enable-background:new    ;}
	.st20{clip-path:url(#SVGID_51_);fill:url(#SVGID_52_);}
	.st21{clip-path:url(#SVGID_55_);fill:url(#SVGID_56_);}
	.st22{clip-path:url(#SVGID_59_);fill:url(#SVGID_60_);}
	.st23{clip-path:url(#SVGID_63_);fill:url(#SVGID_64_);}
	.st24{clip-path:url(#SVGID_67_);fill:url(#SVGID_68_);}
</style>
<g>
	<g>
		<defs>
			<path id="SVGID_1_" d="M-565.3,691.3c10.6,6.8,17.4,18.7,17.4,31.8c0,6-1.4,12-4.2,17.4c9.8,2,19,7.4,26.9,16.9
				c0.6,0.7,1.8,0.3,1.8-0.6C-522.5,720.1-545.1,699.7-565.3,691.3z"/>
		</defs>
		<clipPath id="SVGID_2_">
			<use xlink:href="#SVGID_1_"  style="overflow:visible;"/>
		</clipPath>
		
			<linearGradient id="SVGID_3_" gradientUnits="userSpaceOnUse" x1="-716.1" y1="-416.15" x2="-523.4" y2="-416.15" gradientTransform="matrix(1 0 0 -1 0 256)">
			<stop  offset="0" style="stop-color:#4E1B50"/>
			<stop  offset="1" style="stop-color:#003B62"/>
		</linearGradient>
		<rect x="-716.1" y="571.2" class="st0" width="192.7" height="201.9"/>
	</g>
</g>
<g>
	<g>
		<defs>
			<path id="SVGID_4_" d="M-554.7,739.4c2.6-5,4.1-10.7,4.1-16.4c0-16.4-11.6-30.8-27.7-34.2c-2.6-0.5-5.1-0.7-7.4-0.7
				c-19.6,0-36.5,1.2-61.3,16.6c-19,11.8-33.4,7.1-40.4,3.3c-9.5-5.3-14.9-14-15.4-20.1c-21,17.9-16.2,49.7,7.5,71.7
				c22.8,19.4,58.9,18.3,91.4-4.8c15.5-11,33-17,49-14.7C-554.9,739.7-554.8,739.6-554.7,739.4z"/>
		</defs>
		<clipPath id="SVGID_5_">
			<use xlink:href="#SVGID_4_"  style="overflow:visible;"/>
		</clipPath>
		
			<linearGradient id="SVGID_6_" gradientUnits="userSpaceOnUse" x1="-716.1" y1="-416.15" x2="-523.4" y2="-416.15" gradientTransform="matrix(1 0 0 -1 0 256)">
			<stop  offset="0" style="stop-color:#4E1B50"/>
			<stop  offset="1" style="stop-color:#003B62"/>
		</linearGradient>
		<rect x="-716.1" y="571.2" class="st1" width="192.7" height="201.9"/>
	</g>
</g>
<g>
	<g>
		<defs>
			<path id="SVGID_7_" d="M-578.8,613.6c-14.5-1.8-27.4-6.3-37.1-15.8l-45.3-25.8c-1-0.6-2.3,0.2-2.3,1.4l0.1,47.7l-37.4,64.7
				c0.2,0.1,0-0.1,0,0c0.1,5.4,6.2,15,15,19.9c7.8,4.2,20.6,7.1,37.4-3.4c0.6-0.4,1.3-0.8,1.9-1.2c0.4-0.2,0.7-0.4,1-0.6
				c0.3-0.2,0.6-0.3,0.9-0.5c0.5-0.3,1-0.6,1.4-0.8c0.2-0.1,0.3-0.2,0.4-0.2c0.6-0.3,1.1-0.6,1.6-0.9c0.1-0.1,0.2-0.1,0.2-0.2
				c0.6-0.3,1.1-0.6,1.7-0.9c0.1,0,0.1-0.1,0.2-0.1c0.6-0.3,1.1-0.6,1.8-0.9c0.1,0,0.1-0.1,0.2-0.1c0.6-0.3,1.2-0.6,1.8-0.9l0,0
				c5.5-2.6,11-4.6,16.2-6.2l0,0c-11-31.4,2.1-62.5,37.6-64.2l4.3-7C-575.8,616-576.9,613.8-578.8,613.6z"/>
		</defs>
		<clipPath id="SVGID_8_">
			<use xlink:href="#SVGID_7_"  style="overflow:visible;"/>
		</clipPath>
		
			<linearGradient id="SVGID_9_" gradientUnits="userSpaceOnUse" x1="-716.1" y1="-416.15" x2="-523.4" y2="-416.15" gradientTransform="matrix(1 0 0 -1 0 256)">
			<stop  offset="0" style="stop-color:#4E1B50"/>
			<stop  offset="1" style="stop-color:#003B62"/>
		</linearGradient>
		<rect x="-716.1" y="571.2" class="st2" width="192.7" height="201.9"/>
	</g>
</g>
<g>
	<g>
		<defs>
			<path id="SVGID_10_" d="M-620.1,592.2l-11.6-20c-0.8-1.4-2.8-1.4-3.6,0l-5,8.6L-620.1,592.2z"/>
		</defs>
		<clipPath id="SVGID_11_">
			<use xlink:href="#SVGID_10_"  style="overflow:visible;"/>
		</clipPath>
		
			<linearGradient id="SVGID_12_" gradientUnits="userSpaceOnUse" x1="-716.1" y1="-416.15" x2="-523.4" y2="-416.15" gradientTransform="matrix(1 0 0 -1 0 256)">
			<stop  offset="0" style="stop-color:#4E1B50"/>
			<stop  offset="1" style="stop-color:#003B62"/>
		</linearGradient>
		<rect x="-716.1" y="571.2" class="st3" width="192.7" height="201.9"/>
	</g>
</g>
<g class="st4">
	<g>
		
			<linearGradient id="SVGID_14_" gradientUnits="userSpaceOnUse" x1="-555.9398" y1="-471.9404" x2="-530.389" y2="-464.1287" gradientTransform="matrix(1 0 0 -1 0 256)">
			<stop  offset="0" style="stop-color:#140D10"/>
			<stop  offset="5.064043e-02" style="stop-color:#312928"/>
			<stop  offset="0.1469" style="stop-color:#5C5252"/>
			<stop  offset="0.236" style="stop-color:#887C7C"/>
			<stop  offset="0.3149" style="stop-color:#AFA2A2"/>
			<stop  offset="0.3808" style="stop-color:#C9BEBE"/>
			<stop  offset="0.4256" style="stop-color:#D1C7C7"/>
			<stop  offset="0.4929" style="stop-color:#CABFBF"/>
			<stop  offset="0.5813" style="stop-color:#B3A6A7"/>
			<stop  offset="0.6816" style="stop-color:#8F8385"/>
			<stop  offset="0.7905" style="stop-color:#645B5F"/>
			<stop  offset="0.9051" style="stop-color:#3C3638"/>
			<stop  offset="1" style="stop-color:#140F18"/>
		</linearGradient>
		<path id="SVGID_13_" class="st5" d="M-565.3,691.3c10.6,6.8,17.4,18.7,17.4,31.8c0,6-1.4,12-4.2,17.4c9.8,2,19,7.4,26.9,16.9
			c0.6,0.7,1.8,0.3,1.8-0.6C-522.5,720.1-545.1,699.7-565.3,691.3z"/>
	</g>
	<g>
		<defs>
			<path id="SVGID_15_" d="M-565.3,691.3c10.6,6.8,17.4,18.7,17.4,31.8c0,6-1.4,12-4.2,17.4c9.8,2,19,7.4,26.9,16.9
				c0.6,0.7,1.8,0.3,1.8-0.6C-522.5,720.1-545.1,699.7-565.3,691.3z"/>
		</defs>
		<clipPath id="SVGID_16_">
			<use xlink:href="#SVGID_15_"  style="overflow:visible;"/>
		</clipPath>
		
			<linearGradient id="SVGID_18_" gradientUnits="userSpaceOnUse" x1="-736.0891" y1="-451.7185" x2="-503.4108" y2="-380.5815" gradientTransform="matrix(1 0 0 -1 0 256)">
			<stop  offset="0" style="stop-color:#140D10"/>
			<stop  offset="5.064043e-02" style="stop-color:#312928"/>
			<stop  offset="0.1469" style="stop-color:#5C5252"/>
			<stop  offset="0.236" style="stop-color:#887C7C"/>
			<stop  offset="0.3149" style="stop-color:#AFA2A2"/>
			<stop  offset="0.3808" style="stop-color:#C9BEBE"/>
			<stop  offset="0.4256" style="stop-color:#D1C7C7"/>
			<stop  offset="0.4929" style="stop-color:#CABFBF"/>
			<stop  offset="0.5813" style="stop-color:#B3A6A7"/>
			<stop  offset="0.6816" style="stop-color:#8F8385"/>
			<stop  offset="0.7905" style="stop-color:#645B5F"/>
			<stop  offset="0.9051" style="stop-color:#3C3638"/>
			<stop  offset="1" style="stop-color:#140F18"/>
		</linearGradient>
		<rect x="-716.1" y="571.2" class="st6" width="192.7" height="201.9"/>
	</g>
</g>
<g class="st4">
	<g>
		
			<linearGradient id="SVGID_19_" gradientUnits="userSpaceOnUse" x1="-710.6428" y1="-485.7614" x2="-557.5865" y2="-438.9674" gradientTransform="matrix(1 0 0 -1 0 256)">
			<stop  offset="0" style="stop-color:#140D10"/>
			<stop  offset="5.064043e-02" style="stop-color:#312928"/>
			<stop  offset="0.1469" style="stop-color:#5C5252"/>
			<stop  offset="0.236" style="stop-color:#887C7C"/>
			<stop  offset="0.3149" style="stop-color:#AFA2A2"/>
			<stop  offset="0.3808" style="stop-color:#C9BEBE"/>
			<stop  offset="0.4256" style="stop-color:#D1C7C7"/>
			<stop  offset="0.4929" style="stop-color:#CABFBF"/>
			<stop  offset="0.5813" style="stop-color:#B3A6A7"/>
			<stop  offset="0.6816" style="stop-color:#8F8385"/>
			<stop  offset="0.7905" style="stop-color:#645B5F"/>
			<stop  offset="0.9051" style="stop-color:#3C3638"/>
			<stop  offset="1" style="stop-color:#140F18"/>
		</linearGradient>
		<path id="SVGID_17_" class="st7" d="M-554.7,739.4c2.6-5,4.1-10.7,4.1-16.4c0-16.4-11.6-30.8-27.7-34.2c-2.6-0.5-5.1-0.7-7.4-0.7
			c-19.6,0-36.5,1.2-61.3,16.6c-19,11.8-33.4,7.1-40.4,3.3c-9.5-5.3-14.9-14-15.4-20.1c-21,17.9-16.2,49.7,7.5,71.7
			c22.8,19.4,58.9,18.3,91.4-4.8c15.5-11,33-17,49-14.7C-554.9,739.7-554.8,739.6-554.7,739.4z"/>
	</g>
	<g>
		<defs>
			<path id="SVGID_20_" d="M-554.7,739.4c2.6-5,4.1-10.7,4.1-16.4c0-16.4-11.6-30.8-27.7-34.2c-2.6-0.5-5.1-0.7-7.4-0.7
				c-19.6,0-36.5,1.2-61.3,16.6c-19,11.8-33.4,7.1-40.4,3.3c-9.5-5.3-14.9-14-15.4-20.1c-21,17.9-16.2,49.7,7.5,71.7
				c22.8,19.4,58.9,18.3,91.4-4.8c15.5-11,33-17,49-14.7C-554.9,739.7-554.8,739.6-554.7,739.4z"/>
		</defs>
		<clipPath id="SVGID_22_">
			<use xlink:href="#SVGID_20_"  style="overflow:visible;"/>
		</clipPath>
		
			<linearGradient id="SVGID_23_" gradientUnits="userSpaceOnUse" x1="-736.0891" y1="-451.7185" x2="-503.4108" y2="-380.5815" gradientTransform="matrix(1 0 0 -1 0 256)">
			<stop  offset="0" style="stop-color:#140D10"/>
			<stop  offset="5.064043e-02" style="stop-color:#312928"/>
			<stop  offset="0.1469" style="stop-color:#5C5252"/>
			<stop  offset="0.236" style="stop-color:#887C7C"/>
			<stop  offset="0.3149" style="stop-color:#AFA2A2"/>
			<stop  offset="0.3808" style="stop-color:#C9BEBE"/>
			<stop  offset="0.4256" style="stop-color:#D1C7C7"/>
			<stop  offset="0.4929" style="stop-color:#CABFBF"/>
			<stop  offset="0.5813" style="stop-color:#B3A6A7"/>
			<stop  offset="0.6816" style="stop-color:#8F8385"/>
			<stop  offset="0.7905" style="stop-color:#645B5F"/>
			<stop  offset="0.9051" style="stop-color:#3C3638"/>
			<stop  offset="1" style="stop-color:#140F18"/>
		</linearGradient>
		<rect x="-716.1" y="571.2" class="st8" width="192.7" height="201.9"/>
	</g>
</g>
<g class="st4">
	<g>
		
			<linearGradient id="SVGID_24_" gradientUnits="userSpaceOnUse" x1="-710.6212" y1="-398.9361" x2="-577.0451" y2="-358.0978" gradientTransform="matrix(1 0 0 -1 0 256)">
			<stop  offset="0" style="stop-color:#140D10"/>
			<stop  offset="5.064043e-02" style="stop-color:#312928"/>
			<stop  offset="0.1469" style="stop-color:#5C5252"/>
			<stop  offset="0.236" style="stop-color:#887C7C"/>
			<stop  offset="0.3149" style="stop-color:#AFA2A2"/>
			<stop  offset="0.3808" style="stop-color:#C9BEBE"/>
			<stop  offset="0.4256" style="stop-color:#D1C7C7"/>
			<stop  offset="0.4929" style="stop-color:#CABFBF"/>
			<stop  offset="0.5813" style="stop-color:#B3A6A7"/>
			<stop  offset="0.6816" style="stop-color:#8F8385"/>
			<stop  offset="0.7905" style="stop-color:#645B5F"/>
			<stop  offset="0.9051" style="stop-color:#3C3638"/>
			<stop  offset="1" style="stop-color:#140F18"/>
		</linearGradient>
		<path id="SVGID_21_" class="st9" d="M-578.8,613.6c-14.5-1.8-27.4-6.3-37.1-15.8l-45.3-25.8c-1-0.6-2.3,0.2-2.3,1.4l0.1,47.7
			l-37.4,64.7c0.2,0.1,0-0.1,0,0c0.1,5.4,6.2,15,15,19.9c7.8,4.2,20.6,7.1,37.4-3.4c0.6-0.4,1.3-0.8,1.9-1.2c0.4-0.2,0.7-0.4,1-0.6
			c0.3-0.2,0.6-0.3,0.9-0.5c0.5-0.3,1-0.6,1.4-0.8c0.2-0.1,0.3-0.2,0.4-0.2c0.6-0.3,1.1-0.6,1.6-0.9c0.1-0.1,0.2-0.1,0.2-0.2
			c0.6-0.3,1.1-0.6,1.7-0.9c0.1,0,0.1-0.1,0.2-0.1c0.6-0.3,1.1-0.6,1.8-0.9c0.1,0,0.1-0.1,0.2-0.1c0.6-0.3,1.2-0.6,1.8-0.9l0,0
			c5.5-2.6,11-4.6,16.2-6.2l0,0c-11-31.4,2.1-62.5,37.6-64.2l4.3-7C-575.8,616-576.9,613.8-578.8,613.6z"/>
	</g>
	<g>
		<defs>
			<path id="SVGID_26_" d="M-578.8,613.6c-14.5-1.8-27.4-6.3-37.1-15.8l-45.3-25.8c-1-0.6-2.3,0.2-2.3,1.4l0.1,47.7l-37.4,64.7
				c0.2,0.1,0-0.1,0,0c0.1,5.4,6.2,15,15,19.9c7.8,4.2,20.6,7.1,37.4-3.4c0.6-0.4,1.3-0.8,1.9-1.2c0.4-0.2,0.7-0.4,1-0.6
				c0.3-0.2,0.6-0.3,0.9-0.5c0.5-0.3,1-0.6,1.4-0.8c0.2-0.1,0.3-0.2,0.4-0.2c0.6-0.3,1.1-0.6,1.6-0.9c0.1-0.1,0.2-0.1,0.2-0.2
				c0.6-0.3,1.1-0.6,1.7-0.9c0.1,0,0.1-0.1,0.2-0.1c0.6-0.3,1.1-0.6,1.8-0.9c0.1,0,0.1-0.1,0.2-0.1c0.6-0.3,1.2-0.6,1.8-0.9l0,0
				c5.5-2.6,11-4.6,16.2-6.2l0,0c-11-31.4,2.1-62.5,37.6-64.2l4.3-7C-575.8,616-576.9,613.8-578.8,613.6z"/>
		</defs>
		<clipPath id="SVGID_27_">
			<use xlink:href="#SVGID_26_"  style="overflow:visible;"/>
		</clipPath>
		
			<linearGradient id="SVGID_28_" gradientUnits="userSpaceOnUse" x1="-736.0891" y1="-451.7185" x2="-503.4108" y2="-380.5815" gradientTransform="matrix(1 0 0 -1 0 256)">
			<stop  offset="0" style="stop-color:#140D10"/>
			<stop  offset="5.064043e-02" style="stop-color:#312928"/>
			<stop  offset="0.1469" style="stop-color:#5C5252"/>
			<stop  offset="0.236" style="stop-color:#887C7C"/>
			<stop  offset="0.3149" style="stop-color:#AFA2A2"/>
			<stop  offset="0.3808" style="stop-color:#C9BEBE"/>
			<stop  offset="0.4256" style="stop-color:#D1C7C7"/>
			<stop  offset="0.4929" style="stop-color:#CABFBF"/>
			<stop  offset="0.5813" style="stop-color:#B3A6A7"/>
			<stop  offset="0.6816" style="stop-color:#8F8385"/>
			<stop  offset="0.7905" style="stop-color:#645B5F"/>
			<stop  offset="0.9051" style="stop-color:#3C3638"/>
			<stop  offset="1" style="stop-color:#140F18"/>
		</linearGradient>
		<rect x="-716.1" y="571.2" class="st10" width="192.7" height="201.9"/>
	</g>
</g>
<g class="st4">
	<g>
		
			<linearGradient id="SVGID_30_" gradientUnits="userSpaceOnUse" x1="-638.835" y1="-329.3066" x2="-623.5969" y2="-324.6479" gradientTransform="matrix(1 0 0 -1 0 256)">
			<stop  offset="0" style="stop-color:#140D10"/>
			<stop  offset="5.064043e-02" style="stop-color:#312928"/>
			<stop  offset="0.1469" style="stop-color:#5C5252"/>
			<stop  offset="0.236" style="stop-color:#887C7C"/>
			<stop  offset="0.3149" style="stop-color:#AFA2A2"/>
			<stop  offset="0.3808" style="stop-color:#C9BEBE"/>
			<stop  offset="0.4256" style="stop-color:#D1C7C7"/>
			<stop  offset="0.4929" style="stop-color:#CABFBF"/>
			<stop  offset="0.5813" style="stop-color:#B3A6A7"/>
			<stop  offset="0.6816" style="stop-color:#8F8385"/>
			<stop  offset="0.7905" style="stop-color:#645B5F"/>
			<stop  offset="0.9051" style="stop-color:#3C3638"/>
			<stop  offset="1" style="stop-color:#140F18"/>
		</linearGradient>
		<path id="SVGID_25_" class="st11" d="M-620.1,592.2l-11.6-20c-0.8-1.4-2.8-1.4-3.6,0l-5,8.6L-620.1,592.2z"/>
	</g>
	<g>
		<defs>
			<path id="SVGID_31_" d="M-620.1,592.2l-11.6-20c-0.8-1.4-2.8-1.4-3.6,0l-5,8.6L-620.1,592.2z"/>
		</defs>
		<clipPath id="SVGID_32_">
			<use xlink:href="#SVGID_31_"  style="overflow:visible;"/>
		</clipPath>
		
			<linearGradient id="SVGID_34_" gradientUnits="userSpaceOnUse" x1="-736.0891" y1="-451.7185" x2="-503.4108" y2="-380.5815" gradientTransform="matrix(1 0 0 -1 0 256)">
			<stop  offset="0" style="stop-color:#140D10"/>
			<stop  offset="5.064043e-02" style="stop-color:#312928"/>
			<stop  offset="0.1469" style="stop-color:#5C5252"/>
			<stop  offset="0.236" style="stop-color:#887C7C"/>
			<stop  offset="0.3149" style="stop-color:#AFA2A2"/>
			<stop  offset="0.3808" style="stop-color:#C9BEBE"/>
			<stop  offset="0.4256" style="stop-color:#D1C7C7"/>
			<stop  offset="0.4929" style="stop-color:#CABFBF"/>
			<stop  offset="0.5813" style="stop-color:#B3A6A7"/>
			<stop  offset="0.6816" style="stop-color:#8F8385"/>
			<stop  offset="0.7905" style="stop-color:#645B5F"/>
			<stop  offset="0.9051" style="stop-color:#3C3638"/>
			<stop  offset="1" style="stop-color:#140F18"/>
		</linearGradient>
		<rect x="-716.1" y="571.2" class="st12" width="192.7" height="201.9"/>
	</g>
</g>
<g class="st4">
	<g>
		
			<linearGradient id="SVGID_35_" gradientUnits="userSpaceOnUse" x1="-555.9398" y1="-471.9404" x2="-530.389" y2="-464.1287" gradientTransform="matrix(1 0 0 -1 0 256)">
			<stop  offset="0" style="stop-color:#140D10"/>
			<stop  offset="5.064043e-02" style="stop-color:#312928"/>
			<stop  offset="0.1469" style="stop-color:#5C5252"/>
			<stop  offset="0.236" style="stop-color:#887C7C"/>
			<stop  offset="0.3149" style="stop-color:#AFA2A2"/>
			<stop  offset="0.3808" style="stop-color:#C9BEBE"/>
			<stop  offset="0.4256" style="stop-color:#D1C7C7"/>
			<stop  offset="0.4929" style="stop-color:#CABFBF"/>
			<stop  offset="0.5813" style="stop-color:#B3A6A7"/>
			<stop  offset="0.6816" style="stop-color:#8F8385"/>
			<stop  offset="0.7905" style="stop-color:#645B5F"/>
			<stop  offset="0.9051" style="stop-color:#3C3638"/>
			<stop  offset="1" style="stop-color:#140F18"/>
		</linearGradient>
		<path id="SVGID_29_" class="st13" d="M-565.3,691.3c10.6,6.8,17.4,18.7,17.4,31.8c0,6-1.4,12-4.2,17.4c9.8,2,19,7.4,26.9,16.9
			c0.6,0.7,1.8,0.3,1.8-0.6C-522.5,720.1-545.1,699.7-565.3,691.3z"/>
	</g>
	<g>
		<defs>
			<path id="SVGID_36_" d="M-565.3,691.3c10.6,6.8,17.4,18.7,17.4,31.8c0,6-1.4,12-4.2,17.4c9.8,2,19,7.4,26.9,16.9
				c0.6,0.7,1.8,0.3,1.8-0.6C-522.5,720.1-545.1,699.7-565.3,691.3z"/>
		</defs>
		<clipPath id="SVGID_38_">
			<use xlink:href="#SVGID_36_"  style="overflow:visible;"/>
		</clipPath>
		
			<linearGradient id="SVGID_39_" gradientUnits="userSpaceOnUse" x1="-736.0891" y1="-451.7185" x2="-503.4108" y2="-380.5815" gradientTransform="matrix(1 0 0 -1 0 256)">
			<stop  offset="0" style="stop-color:#140D10"/>
			<stop  offset="5.064043e-02" style="stop-color:#312928"/>
			<stop  offset="0.1469" style="stop-color:#5C5252"/>
			<stop  offset="0.236" style="stop-color:#887C7C"/>
			<stop  offset="0.3149" style="stop-color:#AFA2A2"/>
			<stop  offset="0.3808" style="stop-color:#C9BEBE"/>
			<stop  offset="0.4256" style="stop-color:#D1C7C7"/>
			<stop  offset="0.4929" style="stop-color:#CABFBF"/>
			<stop  offset="0.5813" style="stop-color:#B3A6A7"/>
			<stop  offset="0.6816" style="stop-color:#8F8385"/>
			<stop  offset="0.7905" style="stop-color:#645B5F"/>
			<stop  offset="0.9051" style="stop-color:#3C3638"/>
			<stop  offset="1" style="stop-color:#140F18"/>
		</linearGradient>
		<rect x="-716.1" y="571.2" class="st14" width="192.7" height="201.9"/>
	</g>
</g>
<g class="st4">
	<g>
		
			<linearGradient id="SVGID_40_" gradientUnits="userSpaceOnUse" x1="-710.6428" y1="-485.7614" x2="-557.5865" y2="-438.9674" gradientTransform="matrix(1 0 0 -1 0 256)">
			<stop  offset="0" style="stop-color:#140D10"/>
			<stop  offset="5.064043e-02" style="stop-color:#312928"/>
			<stop  offset="0.1469" style="stop-color:#5C5252"/>
			<stop  offset="0.236" style="stop-color:#887C7C"/>
			<stop  offset="0.3149" style="stop-color:#AFA2A2"/>
			<stop  offset="0.3808" style="stop-color:#C9BEBE"/>
			<stop  offset="0.4256" style="stop-color:#D1C7C7"/>
			<stop  offset="0.4929" style="stop-color:#CABFBF"/>
			<stop  offset="0.5813" style="stop-color:#B3A6A7"/>
			<stop  offset="0.6816" style="stop-color:#8F8385"/>
			<stop  offset="0.7905" style="stop-color:#645B5F"/>
			<stop  offset="0.9051" style="stop-color:#3C3638"/>
			<stop  offset="1" style="stop-color:#140F18"/>
		</linearGradient>
		<path id="SVGID_33_" class="st15" d="M-554.7,739.4c2.6-5,4.1-10.7,4.1-16.4c0-16.4-11.6-30.8-27.7-34.2c-2.6-0.5-5.1-0.7-7.4-0.7
			c-19.6,0-36.5,1.2-61.3,16.6c-19,11.8-33.4,7.1-40.4,3.3c-9.5-5.3-14.9-14-15.4-20.1c-21,17.9-16.2,49.7,7.5,71.7
			c22.8,19.4,58.9,18.3,91.4-4.8c15.5-11,33-17,49-14.7C-554.9,739.7-554.8,739.6-554.7,739.4z"/>
	</g>
	<g>
		<defs>
			<path id="SVGID_42_" d="M-554.7,739.4c2.6-5,4.1-10.7,4.1-16.4c0-16.4-11.6-30.8-27.7-34.2c-2.6-0.5-5.1-0.7-7.4-0.7
				c-19.6,0-36.5,1.2-61.3,16.6c-19,11.8-33.4,7.1-40.4,3.3c-9.5-5.3-14.9-14-15.4-20.1c-21,17.9-16.2,49.7,7.5,71.7
				c22.8,19.4,58.9,18.3,91.4-4.8c15.5-11,33-17,49-14.7C-554.9,739.7-554.8,739.6-554.7,739.4z"/>
		</defs>
		<clipPath id="SVGID_43_">
			<use xlink:href="#SVGID_42_"  style="overflow:visible;"/>
		</clipPath>
		
			<linearGradient id="SVGID_44_" gradientUnits="userSpaceOnUse" x1="-736.0891" y1="-451.7185" x2="-503.4108" y2="-380.5815" gradientTransform="matrix(1 0 0 -1 0 256)">
			<stop  offset="0" style="stop-color:#140D10"/>
			<stop  offset="5.064043e-02" style="stop-color:#312928"/>
			<stop  offset="0.1469" style="stop-color:#5C5252"/>
			<stop  offset="0.236" style="stop-color:#887C7C"/>
			<stop  offset="0.3149" style="stop-color:#AFA2A2"/>
			<stop  offset="0.3808" style="stop-color:#C9BEBE"/>
			<stop  offset="0.4256" style="stop-color:#D1C7C7"/>
			<stop  offset="0.4929" style="stop-color:#CABFBF"/>
			<stop  offset="0.5813" style="stop-color:#B3A6A7"/>
			<stop  offset="0.6816" style="stop-color:#8F8385"/>
			<stop  offset="0.7905" style="stop-color:#645B5F"/>
			<stop  offset="0.9051" style="stop-color:#3C3638"/>
			<stop  offset="1" style="stop-color:#140F18"/>
		</linearGradient>
		<rect x="-716.1" y="571.2" class="st16" width="192.7" height="201.9"/>
	</g>
</g>
<g class="st4">
	<g>
		
			<linearGradient id="SVGID_45_" gradientUnits="userSpaceOnUse" x1="-710.6212" y1="-398.9361" x2="-577.0451" y2="-358.0978" gradientTransform="matrix(1 0 0 -1 0 256)">
			<stop  offset="0" style="stop-color:#140D10"/>
			<stop  offset="5.064043e-02" style="stop-color:#312928"/>
			<stop  offset="0.1469" style="stop-color:#5C5252"/>
			<stop  offset="0.236" style="stop-color:#887C7C"/>
			<stop  offset="0.3149" style="stop-color:#AFA2A2"/>
			<stop  offset="0.3808" style="stop-color:#C9BEBE"/>
			<stop  offset="0.4256" style="stop-color:#D1C7C7"/>
			<stop  offset="0.4929" style="stop-color:#CABFBF"/>
			<stop  offset="0.5813" style="stop-color:#B3A6A7"/>
			<stop  offset="0.6816" style="stop-color:#8F8385"/>
			<stop  offset="0.7905" style="stop-color:#645B5F"/>
			<stop  offset="0.9051" style="stop-color:#3C3638"/>
			<stop  offset="1" style="stop-color:#140F18"/>
		</linearGradient>
		<path id="SVGID_37_" class="st17" d="M-578.8,613.6c-14.5-1.8-27.4-6.3-37.1-15.8l-45.3-25.8c-1-0.6-2.3,0.2-2.3,1.4l0.1,47.7
			l-37.4,64.7c0.2,0.1,0-0.1,0,0c0.1,5.4,6.2,15,15,19.9c7.8,4.2,20.6,7.1,37.4-3.4c0.6-0.4,1.3-0.8,1.9-1.2c0.4-0.2,0.7-0.4,1-0.6
			c0.3-0.2,0.6-0.3,0.9-0.5c0.5-0.3,1-0.6,1.4-0.8c0.2-0.1,0.3-0.2,0.4-0.2c0.6-0.3,1.1-0.6,1.6-0.9c0.1-0.1,0.2-0.1,0.2-0.2
			c0.6-0.3,1.1-0.6,1.7-0.9c0.1,0,0.1-0.1,0.2-0.1c0.6-0.3,1.1-0.6,1.8-0.9c0.1,0,0.1-0.1,0.2-0.1c0.6-0.3,1.2-0.6,1.8-0.9l0,0
			c5.5-2.6,11-4.6,16.2-6.2l0,0c-11-31.4,2.1-62.5,37.6-64.2l4.3-7C-575.8,616-576.9,613.8-578.8,613.6z"/>
	</g>
	<g>
		<defs>
			<path id="SVGID_46_" d="M-578.8,613.6c-14.5-1.8-27.4-6.3-37.1-15.8l-45.3-25.8c-1-0.6-2.3,0.2-2.3,1.4l0.1,47.7l-37.4,64.7
				c0.2,0.1,0-0.1,0,0c0.1,5.4,6.2,15,15,19.9c7.8,4.2,20.6,7.1,37.4-3.4c0.6-0.4,1.3-0.8,1.9-1.2c0.4-0.2,0.7-0.4,1-0.6
				c0.3-0.2,0.6-0.3,0.9-0.5c0.5-0.3,1-0.6,1.4-0.8c0.2-0.1,0.3-0.2,0.4-0.2c0.6-0.3,1.1-0.6,1.6-0.9c0.1-0.1,0.2-0.1,0.2-0.2
				c0.6-0.3,1.1-0.6,1.7-0.9c0.1,0,0.1-0.1,0.2-0.1c0.6-0.3,1.1-0.6,1.8-0.9c0.1,0,0.1-0.1,0.2-0.1c0.6-0.3,1.2-0.6,1.8-0.9l0,0
				c5.5-2.6,11-4.6,16.2-6.2l0,0c-11-31.4,2.1-62.5,37.6-64.2l4.3-7C-575.8,616-576.9,613.8-578.8,613.6z"/>
		</defs>
		<clipPath id="SVGID_47_">
			<use xlink:href="#SVGID_46_"  style="overflow:visible;"/>
		</clipPath>
		
			<linearGradient id="SVGID_48_" gradientUnits="userSpaceOnUse" x1="-736.0891" y1="-451.7185" x2="-503.4108" y2="-380.5815" gradientTransform="matrix(1 0 0 -1 0 256)">
			<stop  offset="0" style="stop-color:#140D10"/>
			<stop  offset="5.064043e-02" style="stop-color:#312928"/>
			<stop  offset="0.1469" style="stop-color:#5C5252"/>
			<stop  offset="0.236" style="stop-color:#887C7C"/>
			<stop  offset="0.3149" style="stop-color:#AFA2A2"/>
			<stop  offset="0.3808" style="stop-color:#C9BEBE"/>
			<stop  offset="0.4256" style="stop-color:#D1C7C7"/>
			<stop  offset="0.4929" style="stop-color:#CABFBF"/>
			<stop  offset="0.5813" style="stop-color:#B3A6A7"/>
			<stop  offset="0.6816" style="stop-color:#8F8385"/>
			<stop  offset="0.7905" style="stop-color:#645B5F"/>
			<stop  offset="0.9051" style="stop-color:#3C3638"/>
			<stop  offset="1" style="stop-color:#140F18"/>
		</linearGradient>
		<rect x="-716.1" y="571.2" class="st18" width="192.7" height="201.9"/>
	</g>
</g>
<g class="st4">
	<g>
		
			<linearGradient id="SVGID_49_" gradientUnits="userSpaceOnUse" x1="-638.835" y1="-329.3066" x2="-623.5969" y2="-324.6479" gradientTransform="matrix(1 0 0 -1 0 256)">
			<stop  offset="0" style="stop-color:#140D10"/>
			<stop  offset="5.064043e-02" style="stop-color:#312928"/>
			<stop  offset="0.1469" style="stop-color:#5C5252"/>
			<stop  offset="0.236" style="stop-color:#887C7C"/>
			<stop  offset="0.3149" style="stop-color:#AFA2A2"/>
			<stop  offset="0.3808" style="stop-color:#C9BEBE"/>
			<stop  offset="0.4256" style="stop-color:#D1C7C7"/>
			<stop  offset="0.4929" style="stop-color:#CABFBF"/>
			<stop  offset="0.5813" style="stop-color:#B3A6A7"/>
			<stop  offset="0.6816" style="stop-color:#8F8385"/>
			<stop  offset="0.7905" style="stop-color:#645B5F"/>
			<stop  offset="0.9051" style="stop-color:#3C3638"/>
			<stop  offset="1" style="stop-color:#140F18"/>
		</linearGradient>
		<path id="SVGID_41_" class="st19" d="M-620.1,592.2l-11.6-20c-0.8-1.4-2.8-1.4-3.6,0l-5,8.6L-620.1,592.2z"/>
	</g>
	<g>
		<defs>
			<path id="SVGID_50_" d="M-620.1,592.2l-11.6-20c-0.8-1.4-2.8-1.4-3.6,0l-5,8.6L-620.1,592.2z"/>
		</defs>
		<clipPath id="SVGID_51_">
			<use xlink:href="#SVGID_50_"  style="overflow:visible;"/>
		</clipPath>
		
			<linearGradient id="SVGID_52_" gradientUnits="userSpaceOnUse" x1="-736.0891" y1="-451.7185" x2="-503.4108" y2="-380.5815" gradientTransform="matrix(1 0 0 -1 0 256)">
			<stop  offset="0" style="stop-color:#140D10"/>
			<stop  offset="5.064043e-02" style="stop-color:#312928"/>
			<stop  offset="0.1469" style="stop-color:#5C5252"/>
			<stop  offset="0.236" style="stop-color:#887C7C"/>
			<stop  offset="0.3149" style="stop-color:#AFA2A2"/>
			<stop  offset="0.3808" style="stop-color:#C9BEBE"/>
			<stop  offset="0.4256" style="stop-color:#D1C7C7"/>
			<stop  offset="0.4929" style="stop-color:#CABFBF"/>
			<stop  offset="0.5813" style="stop-color:#B3A6A7"/>
			<stop  offset="0.6816" style="stop-color:#8F8385"/>
			<stop  offset="0.7905" style="stop-color:#645B5F"/>
			<stop  offset="0.9051" style="stop-color:#3C3638"/>
			<stop  offset="1" style="stop-color:#140F18"/>
		</linearGradient>
		<rect x="-716.1" y="571.2" class="st20" width="192.7" height="201.9"/>
	</g>
</g>
<g>
	<g>
		<g>
			<defs>
				<path id="SVGID_53_" d="M188.6,150.7c13.2,8.5,21.8,23.4,21.8,39.7c0,7.5-1.8,15-5.3,21.7c12.3,2.5,23.8,9.2,33.6,21.1
					c0.8,0.9,2.3,0.4,2.3-0.8C242.2,186.7,213.9,161.2,188.6,150.7z"/>
			</defs>
			<linearGradient id="SVGID_54_" gradientUnits="userSpaceOnUse" x1="179.7685" y1="159.5575" x2="247.0818" y2="226.8708">
				<stop  offset="0" style="stop-color:#FFFFFF"/>
				<stop  offset="1.785946e-02" style="stop-color:#FCFAF8"/>
				<stop  offset="0.137" style="stop-color:#E9DFCB"/>
				<stop  offset="0.2614" style="stop-color:#DAC8A5"/>
				<stop  offset="0.3895" style="stop-color:#CDB586"/>
				<stop  offset="0.5225" style="stop-color:#C3A66E"/>
				<stop  offset="0.6628" style="stop-color:#BC9B5C"/>
				<stop  offset="0.8147" style="stop-color:#B79552"/>
				<stop  offset="1" style="stop-color:#B6934F"/>
			</linearGradient>
			<use xlink:href="#SVGID_53_"  style="overflow:visible;fill:url(#SVGID_54_);"/>
			<clipPath id="SVGID_55_">
				<use xlink:href="#SVGID_53_"  style="overflow:visible;"/>
			</clipPath>
			
				<linearGradient id="SVGID_56_" gradientUnits="userSpaceOnUse" x1="-2.6831" y1="252.4908" x2="243.9669" y2="5.8408" gradientTransform="matrix(1 0 0 -1 0 256)">
				<stop  offset="0" style="stop-color:#FFFFFF"/>
				<stop  offset="1.785946e-02" style="stop-color:#FCFAF8"/>
				<stop  offset="0.137" style="stop-color:#E9DFCB"/>
				<stop  offset="0.2614" style="stop-color:#DAC8A5"/>
				<stop  offset="0.3895" style="stop-color:#CDB586"/>
				<stop  offset="0.5225" style="stop-color:#C3A66E"/>
				<stop  offset="0.6628" style="stop-color:#BC9B5C"/>
				<stop  offset="0.8147" style="stop-color:#B79552"/>
				<stop  offset="1" style="stop-color:#B6934F"/>
			</linearGradient>
			<rect x="0.2" y="0.6" class="st21" width="240.9" height="252.4"/>
		</g>
	</g>
	<g>
		<g>
			<defs>
				<path id="SVGID_57_" d="M201.9,210.9c3.3-6.3,5.1-13.4,5.1-20.5c0-20.5-14.5-38.5-34.6-42.8c-3.3-0.6-6.4-0.9-9.2-0.9
					c-24.5,0-45.6,1.5-76.6,20.7c-23.8,14.7-41.8,8.9-50.5,4.1c-11.9-6.6-18.6-17.5-19.3-25.1c-26.2,22.4-20.2,62.1,9.4,89.6
					c28.5,24.2,73.6,22.9,114.2-6c19.4-13.7,41.2-21.3,61.2-18.4C201.7,211.3,201.8,211.1,201.9,210.9z"/>
			</defs>
			<linearGradient id="SVGID_58_" gradientUnits="userSpaceOnUse" x1="37.6744" y1="125.3307" x2="162.7849" y2="250.4412">
				<stop  offset="0" style="stop-color:#FFFFFF"/>
				<stop  offset="1.785946e-02" style="stop-color:#FCFAF8"/>
				<stop  offset="0.137" style="stop-color:#E9DFCB"/>
				<stop  offset="0.2614" style="stop-color:#DAC8A5"/>
				<stop  offset="0.3895" style="stop-color:#CDB586"/>
				<stop  offset="0.5225" style="stop-color:#C3A66E"/>
				<stop  offset="0.6628" style="stop-color:#BC9B5C"/>
				<stop  offset="0.8147" style="stop-color:#B79552"/>
				<stop  offset="1" style="stop-color:#B6934F"/>
			</linearGradient>
			<use xlink:href="#SVGID_57_"  style="overflow:visible;fill:url(#SVGID_58_);"/>
			<clipPath id="SVGID_59_">
				<use xlink:href="#SVGID_57_"  style="overflow:visible;"/>
			</clipPath>
			
				<linearGradient id="SVGID_60_" gradientUnits="userSpaceOnUse" x1="-2.6831" y1="252.4908" x2="243.9669" y2="5.8408" gradientTransform="matrix(1 0 0 -1 0 256)">
				<stop  offset="0" style="stop-color:#FFFFFF"/>
				<stop  offset="1.785946e-02" style="stop-color:#FCFAF8"/>
				<stop  offset="0.137" style="stop-color:#E9DFCB"/>
				<stop  offset="0.2614" style="stop-color:#DAC8A5"/>
				<stop  offset="0.3895" style="stop-color:#CDB586"/>
				<stop  offset="0.5225" style="stop-color:#C3A66E"/>
				<stop  offset="0.6628" style="stop-color:#BC9B5C"/>
				<stop  offset="0.8147" style="stop-color:#B79552"/>
				<stop  offset="1" style="stop-color:#B6934F"/>
			</linearGradient>
			<rect x="0.2" y="0.6" class="st22" width="240.9" height="252.4"/>
		</g>
	</g>
	<g>
		<g>
			<defs>
				<path id="SVGID_61_" d="M171.8,53.6c-18.1-2.3-34.2-7.9-46.4-19.8L68.8,1.6c-1.3-0.7-2.9,0.2-2.9,1.7L66,62.9l-46.7,80.9
					c0.2,0.1,0-0.1,0,0c0.1,6.8,7.7,18.8,18.8,24.9c9.7,5.3,25.7,8.9,46.7-4.2c0.8-0.5,1.6-1,2.4-1.5c0.5-0.3,0.9-0.5,1.3-0.8
					c0.4-0.2,0.7-0.4,1.1-0.6c0.6-0.4,1.2-0.7,1.8-1c0.2-0.1,0.4-0.2,0.5-0.3c0.7-0.4,1.4-0.8,2-1.1c0.1-0.1,0.2-0.1,0.3-0.2
					c0.7-0.4,1.4-0.8,2.1-1.1c0.1,0,0.1-0.1,0.2-0.1c0.7-0.4,1.4-0.7,2.2-1.1c0.1,0,0.1-0.1,0.2-0.1c0.8-0.4,1.5-0.7,2.3-1.1l0,0
					c6.9-3.3,13.7-5.8,20.3-7.7l0,0c-13.8-39.3,2.6-78.1,47-80.3l5.4-8.7C175.5,56.6,174.2,53.9,171.8,53.6z"/>
			</defs>
			<linearGradient id="SVGID_62_" gradientUnits="userSpaceOnUse" x1="30.7942" y1="37.6248" x2="131.2477" y2="138.0783">
				<stop  offset="0" style="stop-color:#FFFFFF"/>
				<stop  offset="1.785946e-02" style="stop-color:#FCFAF8"/>
				<stop  offset="0.137" style="stop-color:#E9DFCB"/>
				<stop  offset="0.2614" style="stop-color:#DAC8A5"/>
				<stop  offset="0.3895" style="stop-color:#CDB586"/>
				<stop  offset="0.5225" style="stop-color:#C3A66E"/>
				<stop  offset="0.6628" style="stop-color:#BC9B5C"/>
				<stop  offset="0.8147" style="stop-color:#B79552"/>
				<stop  offset="1" style="stop-color:#B6934F"/>
			</linearGradient>
			<use xlink:href="#SVGID_61_"  style="overflow:visible;fill:url(#SVGID_62_);"/>
			<clipPath id="SVGID_63_">
				<use xlink:href="#SVGID_61_"  style="overflow:visible;"/>
			</clipPath>
			<linearGradient id="SVGID_64_" gradientUnits="userSpaceOnUse" x1="-2.6831" y1="3.5092" x2="243.9669" y2="250.1592">
				<stop  offset="0" style="stop-color:#FFFFFF"/>
				<stop  offset="1.785946e-02" style="stop-color:#FCFAF8"/>
				<stop  offset="0.137" style="stop-color:#E9DFCB"/>
				<stop  offset="0.2614" style="stop-color:#DAC8A5"/>
				<stop  offset="0.3895" style="stop-color:#CDB586"/>
				<stop  offset="0.5225" style="stop-color:#C3A66E"/>
				<stop  offset="0.6628" style="stop-color:#BC9B5C"/>
				<stop  offset="0.8147" style="stop-color:#B79552"/>
				<stop  offset="1" style="stop-color:#B6934F"/>
			</linearGradient>
			<rect x="0.2" y="0.6" class="st23" width="240.9" height="252.4"/>
		</g>
	</g>
	<g>
		<g>
			<defs>
				<path id="SVGID_65_" d="M120.2,26.9l-14.5-25c-1-1.7-3.5-1.7-4.5,0L95,12.6L120.2,26.9z"/>
			</defs>
			<linearGradient id="SVGID_66_" gradientUnits="userSpaceOnUse" x1="98.0621" y1="4.9448" x2="120.1217" y2="27.0044">
				<stop  offset="0" style="stop-color:#FFFFFF"/>
				<stop  offset="1.785946e-02" style="stop-color:#FCFAF8"/>
				<stop  offset="0.137" style="stop-color:#E9DFCB"/>
				<stop  offset="0.2614" style="stop-color:#DAC8A5"/>
				<stop  offset="0.3895" style="stop-color:#CDB586"/>
				<stop  offset="0.5225" style="stop-color:#C3A66E"/>
				<stop  offset="0.6628" style="stop-color:#BC9B5C"/>
				<stop  offset="0.8147" style="stop-color:#B79552"/>
				<stop  offset="1" style="stop-color:#B6934F"/>
			</linearGradient>
			<use xlink:href="#SVGID_65_"  style="overflow:visible;fill:url(#SVGID_66_);"/>
			<clipPath id="SVGID_67_">
				<use xlink:href="#SVGID_65_"  style="overflow:visible;"/>
			</clipPath>
			
				<linearGradient id="SVGID_68_" gradientUnits="userSpaceOnUse" x1="-2.6831" y1="252.4908" x2="243.9669" y2="5.8408" gradientTransform="matrix(1 0 0 -1 0 256)">
				<stop  offset="0" style="stop-color:#FFFFFF"/>
				<stop  offset="1.785946e-02" style="stop-color:#FCFAF8"/>
				<stop  offset="0.137" style="stop-color:#E9DFCB"/>
				<stop  offset="0.2614" style="stop-color:#DAC8A5"/>
				<stop  offset="0.3895" style="stop-color:#CDB586"/>
				<stop  offset="0.5225" style="stop-color:#C3A66E"/>
				<stop  offset="0.6628" style="stop-color:#BC9B5C"/>
				<stop  offset="0.8147" style="stop-color:#B79552"/>
				<stop  offset="1" style="stop-color:#B6934F"/>
			</linearGradient>
			<rect x="0.2" y="0.6" class="st24" width="240.9" height="252.4"/>
		</g>
	</g>
</g>
</svg>
