<?xml version="1.0" encoding="utf-8"?>
<!-- Generator: Adobe Illustrator 22.0.1, SVG Export Plug-In . SVG Version: 6.00 Build 0)  -->
<svg version="1.1" id="Capa_1" xmlns="http://www.w3.org/2000/svg" xmlns:xlink="http://www.w3.org/1999/xlink" x="0px" y="0px"
	 viewBox="0 0 485.3 308.9" style="enable-background:new 0 0 485.3 308.9;" xml:space="preserve">
<style type="text/css">
	.st0{fill:#FFFFFF;}
</style>
<g>
	<g>
		<path class="st0" d="M485.6,307l-0.6-33.7l-0.5-33.7l-1-67.4l0-134.9l0-16.8c-0.1-5-2.7-9.9-6.8-12.8c-2-1.5-4.4-2.6-6.9-3.1
			c-1.2-0.3-2.5-0.4-3.8-0.5c-1.3,0-2.8,0-4.2,0h-16.9h-67.4H242.8H107.9H40.5H23.6c-1.4,0-2.8,0-4.2,0c-1.3,0-2.5,0.2-3.8,0.5
			C13.2,5,10.8,6.1,8.8,7.6c-4.1,3-6.7,7.8-6.8,12.8l0,16.8l0,134.9l-1,67.4l-0.5,33.7L0,307l-0.6-33.7L-1,239.6l-1-67.4l0-134.9
			l0-16.9c0.1-6.3,3.4-12.3,8.4-16c2.5-1.8,5.4-3.1,8.4-3.8c1.5-0.3,3-0.5,4.6-0.6c1.5,0,2.8,0,4.3,0h16.9h67.4h134.9h134.9h67.4
			H462c1.4,0,2.8,0,4.3,0c1.5,0,3.1,0.2,4.6,0.6c3,0.7,5.9,2,8.4,3.8c5,3.6,8.3,9.7,8.4,16l0,16.9l0,134.9l-1,67.4l-0.5,33.7
			L485.6,307z"/>
	</g>
	<g>
		<path class="st0" d="M12.1,305.4l-0.6-32l-0.5-32l-1-64.1l0-128.1v-8v-4c0-1.4,0-2.6,0.1-4.1c0.2-2.9,1-5.9,2.4-8.5
			c1.4-2.6,3.4-4.9,5.7-6.7c2.3-1.8,5.1-3.1,7.9-3.8c1.4-0.3,2.9-0.5,4.4-0.5c1.4,0,2.7,0,4,0h16h64.1h128.1h128.1H435h16
			c1.3,0,2.6,0,4,0c1.5,0,2.9,0.2,4.4,0.5c2.9,0.7,5.6,2,7.9,3.8c2.3,1.8,4.3,4.1,5.7,6.7c1.4,2.6,2.2,5.5,2.4,8.5
			c0.1,1.5,0,2.8,0.1,4.1v4v8v128.1l-1,64.1l-0.5,32l-0.6,32l-0.6-32l-0.5-32l-1-64.1V49.1v-8v-4c0-1.3,0-2.8-0.1-3.9
			c-0.1-2.4-0.8-4.7-1.9-6.8c-1.1-2.1-2.7-4-4.6-5.4c-1.9-1.5-4.1-2.5-6.4-3c-1.2-0.3-2.3-0.4-3.5-0.4c-1.3,0-2.7,0-4,0h-16h-64.1
			H242.8H114.7H50.6h-16c-1.3,0-2.7,0-4,0c-1.2,0-2.4,0.2-3.5,0.4c-2.3,0.5-4.5,1.6-6.4,3c-1.9,1.5-3.5,3.3-4.6,5.4
			c-1.1,2.1-1.8,4.5-1.9,6.8c-0.1,1.1,0,2.6-0.1,3.9v4v8l0,128.1l-1,64.1l-0.5,32L12.1,305.4z"/>
	</g>
	<g>
		<path class="st0" d="M429.3,54.7H123.6c-19.8,0-18.8,3.8-18.8,8.5c0,4.7-1,8.5,18.8,8.5h305.7c19.8,0,18.4-3.8,18.4-8.5
			C447.8,58.5,449.1,54.7,429.3,54.7z"/>
		<path class="st0" d="M90.4,55H68.9c1.6,2.6,2.5,5.8,2.5,9.3s-0.9,6.7-2.5,9.3h21.5c4.3,0,7.8-4.1,7.8-9.3
			C98.2,59.2,94.7,55,90.4,55z"/>
		<path class="st0" d="M53.8,50.4c-7.6,0-13.9,6.2-13.9,13.9c0,7.6,6.2,13.9,13.9,13.9s13.9-6.2,13.9-13.9
			C67.7,56.6,61.4,50.4,53.8,50.4z"/>
	</g>
	<g>
		<g>
			<path class="st0" d="M134.7,160.5l-13.5-43.2h14.1l8.3,32.2l22.2-32.2h14l-32.2,43.4l-4.9,23.3h-12.9L134.7,160.5z"/>
			<path class="st0" d="M198.5,184.4c-3.9,0-7.5-0.8-10.5-2.3c-3.1-1.5-5.7-3.6-7.8-6.2c-2.1-2.6-3.7-5.5-4.7-8.8
				c-1.1-3.3-1.6-6.8-1.6-10.4c0-5.1,1.1-10,3.2-14.8c2.2-4.8,5.1-9.1,8.7-12.8c3.6-3.7,7.8-6.7,12.6-9c4.7-2.3,9.7-3.4,14.8-3.4
				c3.9,0,7.4,0.8,10.5,2.4c3,1.6,5.6,3.6,7.6,6.2c2,2.6,3.6,5.5,4.7,8.9c1.1,3.4,1.6,6.9,1.6,10.4c0,5-1.1,9.9-3.2,14.7
				c-2.1,4.8-5,9-8.6,12.7c-3.6,3.7-7.8,6.7-12.5,8.9C208.5,183.3,203.6,184.4,198.5,184.4z M201,173c3.4,0,6.6-0.8,9.4-2.5
				c2.9-1.7,5.3-3.9,7.4-6.5c2.1-2.6,3.7-5.6,4.8-8.8c1.1-3.2,1.7-6.4,1.7-9.5c0-2.3-0.3-4.5-0.8-6.6c-0.6-2.1-1.4-3.9-2.6-5.5
				c-1.2-1.6-2.6-2.8-4.4-3.8c-1.8-0.9-3.8-1.4-6.1-1.4c-3.4,0-6.6,0.8-9.5,2.5c-2.9,1.7-5.4,3.8-7.4,6.4s-3.7,5.6-4.8,8.8
				c-1.1,3.2-1.7,6.4-1.7,9.6c0,2.3,0.3,4.5,0.8,6.6c0.6,2.1,1.4,3.9,2.6,5.5c1.2,1.6,2.6,2.9,4.4,3.8
				C196.6,172.5,198.6,173,201,173z"/>
			<path class="st0" d="M268.5,184.4c-4,0-7.4-0.6-10.2-1.7c-2.8-1.2-5.1-2.8-6.8-4.8c-1.8-2-3-4.4-3.8-7.1
				c-0.8-2.7-1.2-5.7-1.2-8.9c0-3.4,0.4-7,1.2-10.6l7.2-34h12.9l-7.2,34c-0.3,1.4-0.5,2.9-0.7,4.3c-0.2,1.4-0.2,2.8-0.2,4.1
				c0,1.9,0.2,3.6,0.6,5.3c0.4,1.6,1,3,1.9,4.2c0.9,1.2,2.1,2.1,3.5,2.8c1.4,0.7,3.1,1,5.2,1c2.8,0,5.3-0.6,7.5-1.9
				c2.2-1.3,4.1-2.9,5.7-4.9c1.6-2,2.9-4.3,4-6.9c1.1-2.6,1.9-5.3,2.4-8l7.2-34h12.9l-7.2,34c-0.9,4.6-2.4,8.9-4.3,12.9
				c-1.9,4-4.4,7.5-7.2,10.5c-2.9,3-6.3,5.4-10.2,7.1C277.8,183.6,273.4,184.4,268.5,184.4z"/>
			<path class="st0" d="M311.3,184l14.2-66.8h28.2c2.5,0,4.8,0.5,6.8,1.6s3.7,2.4,5.1,4.1c1.4,1.7,2.4,3.7,3.1,5.9
				c0.7,2.2,1.1,4.5,1.1,6.8c0,2.4-0.4,4.8-1.2,7.2c-0.8,2.4-1.9,4.6-3.3,6.6s-3.1,3.9-5,5.5c-1.9,1.6-4,2.9-6.3,3.9l9,25.1h-14.7
				l-7.9-22.4h-11.6l-4.7,22.4H311.3z M346.3,150.2c1.3,0,2.5-0.4,3.7-1.1c1.2-0.7,2.3-1.7,3.2-2.9c0.9-1.2,1.7-2.6,2.3-4.2
				c0.6-1.6,0.9-3.3,0.9-5c0-2.4-0.6-4.4-1.7-6c-1.2-1.6-2.6-2.4-4.3-2.4h-14.5l-4.6,21.6H346.3z"/>
		</g>
		<g>
			<path class="st0" d="M122,202.4h16.4l7.5,60.6l14.1-24.9l-4.8-35.5H169l2.6,25.8l13.5-25.8h14.1l-20.1,35.5l3.6,24.9l33.2-60.6
				h16.5l-46.6,78h-12.6l-5.6-32.7l-19.6,32.7h-12.6L122,202.4z"/>
			<path class="st0" d="M243,202.4h50.5l-2.7,13.3h-35.6l-4,18.8h30.6l-2.6,12.3h-30.6l-4.3,20.3h36.5l-2.9,13.3h-51.5L243,202.4z"
				/>
			<path class="st0" d="M308.6,202.4h40c2.2,0,4.1,0.5,5.8,1.4c1.6,0.9,3,2.1,4.1,3.6c1.1,1.5,1.9,3.1,2.5,5.1
				c0.5,1.9,0.8,3.9,0.8,5.9c0,2.3-0.3,4.5-1,6.7c-0.7,2.2-1.7,4.3-3,6.3c-1.3,2-2.9,3.8-4.8,5.3c-1.9,1.6-3.9,2.8-6.2,3.8
				c3.3,1.1,5.8,3,7.6,5.7c1.8,2.7,2.6,5.9,2.6,9.8c0,4-0.8,7.5-2.4,10.5c-1.6,3-3.8,5.6-6.5,7.7c-2.7,2.1-5.8,3.7-9.3,4.7
				c-3.5,1.1-7.1,1.6-10.9,1.6H292L308.6,202.4z M330.6,267.6c1.4,0,2.8-0.3,4.2-1c1.4-0.7,2.6-1.6,3.7-2.7c1.1-1.1,1.9-2.5,2.6-4
				c0.7-1.5,1-3.1,1-4.8c0-2.3-0.6-4.2-1.7-5.8c-1.1-1.6-2.7-2.4-4.7-2.4h-21.5l-4.3,20.5H330.6z M335.3,235.1
				c1.3,0,2.6-0.3,3.9-0.9c1.3-0.6,2.4-1.4,3.5-2.5c1-1.1,1.8-2.3,2.5-3.8c0.6-1.5,0.9-3.2,0.9-5c0-2.3-0.5-4.1-1.6-5.4
				c-1.1-1.4-2.6-2-4.4-2h-19.1l-4.2,19.7H335.3z"/>
		</g>
	</g>
	<circle class="st0" cx="413.7" cy="35" r="4"/>
	<circle class="st0" cx="426.2" cy="35" r="4"/>
	<circle class="st0" cx="438.8" cy="35" r="4"/>
</g>
</svg>
